<?xml version="1.0" encoding="UTF-8" standalone="no"?>
<svg
   version="1.1"
   width="1280"
   height="1024"
   viewBox="0 0 1280 1024"
   xml:space="preserve"
   id="svg58"
   sodipodi:docname="Round.svg"
   inkscape:version="1.3 (0e150ed, 2023-07-21)"
   xmlns:inkscape="http://www.inkscape.org/namespaces/inkscape"
   xmlns:sodipodi="http://sodipodi.sourceforge.net/DTD/sodipodi-0.dtd"
   xmlns="http://www.w3.org/2000/svg"
   xmlns:svg="http://www.w3.org/2000/svg"><sodipodi:namedview
   id="namedview58"
   pagecolor="#ffffff"
   bordercolor="#000000"
   borderopacity="0.25"
   inkscape:showpageshadow="2"
   inkscape:pageopacity="0.0"
   inkscape:pagecheckerboard="0"
   inkscape:deskcolor="#d1d1d1"
   inkscape:zoom="0.6515625"
   inkscape:cx="640"
   inkscape:cy="568.63309"
   inkscape:window-width="1392"
   inkscape:window-height="938"
   inkscape:window-x="234"
   inkscape:window-y="25"
   inkscape:window-maximized="0"
   inkscape:current-layer="svg58" />&#10;<desc
   id="desc1">Created with Fabric.js 4.4.0</desc>&#10;<defs
   id="defs1" />&#10;&#10;<g
   transform="matrix(1.8624744,0,0,1.8624744,640.04854,512.66015)"
   id="logo-logo"
   inkscape:label="Core">&#10;<g
   paint-order="stroke"
   id="g16">&#10;		<g
   transform="matrix(0.23400431,0,0,0.23400431,-5.9965333,-2.5392926)"
   id="g1">&#10;<path
   style="opacity:1;fill:#993499;fill-rule:nonzero;stroke:none;stroke-width:1;stroke-linecap:butt;stroke-linejoin:miter;stroke-miterlimit:4;stroke-dasharray:none;stroke-dashoffset:0"
   paint-order="stroke"
   transform="translate(-450.08217,-461.85072)"
   d="m 399.29,378.75 c -0.16,-1.59 -0.18,-3.26 -0.07,-4.97 0.76,-12.16 8.13,-27.54 20.82,-40.39 12.65,-12.8 30.63,-23.15 52.66,-25.34 4.62,-0.46 9.41,-0.56 14.36,-0.25 12.45,0.78 25.2,2.77 37.01,5.78 11.45,2.92 22.04,6.82 30.68,11.52 2.59,1.41 4.99,2.89 7.18,4.42 6.46,4.54 11.18,9.68 13.44,15.34 2.32,5.81 2.07,12.07 -1.53,18.66 -0.59,1.08 -1.26,2.16 -2.01,3.22 -4.75,6.76 -9.51,13.29 -13.93,19.35 -8.34,11.43 -15.41,21.11 -20.21,29.54 -9.87,17.32 -9.79,29.13 9.62,40.2 7.77,4.43 15.44,12.71 22.26,23.26 10.42,16.13 18.92,37.69 22.68,58.92 3.79,21.38 2.79,42.5 -5.82,57.61 -3.33,5.85 -7.8,10.79 -13.55,14.51 -12.75,8.24 -28.86,7.29 -44.82,1.01 -18.66,-7.34 -37.18,-22.01 -49.75,-37.66 -3.07,-3.82 -7.13,-10.44 -11.96,-18.31 -8.15,-13.28 -18.53,-30.2 -29.79,-42.87 -13.63,-15.34 -28.55,-24.4 -42.1,-12.37 -3.07,2.73 -4.83,4.31 -6.59,5.88 -17.48,15.66 -35.07,31.44 -49.85,36.18 -13.21,4.24 -24.03,0.05 -30.38,-19.74 -5.47,-17.05 1.95,-33.36 14.35,-47.42 20.06,-22.74 53.38,-39.67 65.35,-43.89 16.69,-5.88 14.04,-31.69 12.24,-49.23 -0.09,-0.92 -0.19,-1.81 -0.3,-2.98 z m 3.46,-4.75 c -0.1,1.54 -0.08,3.01 0.06,4.4 0.07,0.76 0.19,1.84 0.3,2.97 1.92,18.66 4.74,46.12 -14.58,52.93 -11.71,4.13 -44.28,20.67 -63.88,42.89 -11.64,13.2 -18.64,28.38 -13.63,44 5.55,17.3 14.76,21.04 25.93,17.46 14.07,-4.51 31.38,-20.03 48.58,-35.44 2.64,-2.37 5.28,-4.73 6.59,-5.89 15.61,-13.87 32.17,-4.15 47.1,12.66 11.45,12.88 21.93,29.97 30.16,43.38 4.77,7.77 8.77,14.29 11.7,17.93 12.22,15.22 30.2,29.47 48.28,36.58 14.96,5.88 29.94,6.85 41.62,-0.69 5.25,-3.39 9.33,-7.92 12.39,-13.28 8.17,-14.33 9.06,-34.61 5.4,-55.25 -3.68,-20.78 -11.99,-41.86 -22.17,-57.62 -6.52,-10.09 -13.78,-17.96 -21.03,-22.09 -21.85,-12.45 -21.98,-25.68 -10.95,-45.02 4.88,-8.55 12.01,-18.33 20.43,-29.87 4.26,-5.84 8.86,-12.15 13.89,-19.3 0.69,-0.98 1.29,-1.94 1.8,-2.88 3.04,-5.58 3.28,-10.83 1.35,-15.66 -1.99,-4.98 -6.28,-9.6 -12.19,-13.76 -2.1,-1.48 -4.39,-2.88 -6.83,-4.21 -8.35,-4.55 -18.67,-8.33 -29.86,-11.19 -11.62,-2.97 -24.14,-4.92 -36.36,-5.69 -4.77,-0.3 -9.37,-0.2 -13.79,0.24 -21.12,2.1 -38.35,12.02 -50.49,24.3 -12.09,12.23 -19.1,26.75 -19.81,38.13 z"
   stroke-linecap="round"
   id="path1" />&#10;</g>&#10;		<g
   transform="matrix(0.23400431,0,0,0.23400431,-6.5417237,-3.023217)"
   id="g2">&#10;<path
   style="opacity:1;fill:#a03192;fill-rule:nonzero;stroke:none;stroke-width:1;stroke-linecap:butt;stroke-linejoin:miter;stroke-miterlimit:4;stroke-dasharray:none;stroke-dashoffset:0"
   paint-order="stroke"
   transform="translate(-447.75234,-459.7827)"
   d="m 374.95,362.91 c 0.06,-0.37 0.15,-0.81 0.25,-1.34 3.41,-16.77 18,-37.2 38.29,-52.28 20.3,-15.08 46.36,-24.88 72.73,-20.4 0.74,0.13 1.55,0.28 2.43,0.46 0.1,0.02 0.2,0.05 0.3,0.09 11.69,4.21 25.02,8.83 38.09,13.24 14.56,4.92 28.89,9.62 40.25,13.22 l 0.11,0.04 c 2.34,0.77 4.64,1.66 6.87,2.68 9.19,4.17 17.3,10.38 22.35,17.98 5.15,7.75 7.14,16.91 3.9,26.81 -0.4,1.23 -0.88,2.47 -1.45,3.71 -0.05,0.1 -0.1,0.2 -0.16,0.29 -6.37,10.62 -12.44,19.91 -17.9,28.26 -21.91,33.51 -33.7,51.55 -8.51,70.76 0.07,0.05 0.13,0.11 0.19,0.17 8.18,7.79 14.98,20.58 19.93,35.03 5.44,15.88 8.69,33.84 9.11,49.37 0.4,14.75 0.67,28.07 -2.66,39.99 -3.38,12.11 -10.4,22.63 -24.59,31.45 -16.48,10.3 -33.57,11.41 -50.61,6.54 -16.81,-4.8 -33.54,-15.44 -49.55,-28.75 l -0.09,-0.08 v 0 c -4.56,-4.29 -10.47,-12.47 -17.35,-21.99 -20.18,-27.93 -49,-67.83 -73.35,-50.23 l -0.05,0.04 c -2.86,1.92 -5.19,3.51 -7.53,5.09 -16.98,11.53 -33.65,22.85 -47.7,26.66 -15.45,4.19 -27.66,-0.31 -33.62,-22.29 -0.02,-0.09 -0.04,-0.18 -0.05,-0.27 -10,-42.54 46.91,-86.38 66.53,-101.49 1.93,-1.49 3.49,-2.69 4.57,-3.57 l 0.05,-0.04 c 6.56,-5.03 6.56,-18.67 6.57,-34.18 0,-11.43 0.01,-23.83 2.65,-34.99 z m 3.96,-0.6 c -0.07,0.33 -0.14,0.74 -0.22,1.22 v 0 l -0.03,0.13 c -2.57,10.75 -2.57,22.98 -2.58,34.24 -0.01,16.5 -0.01,31.02 -8.05,37.19 -1.12,0.91 -2.68,2.11 -4.6,3.59 -19.13,14.74 -74.66,57.51 -65.14,97.7 l 0.02,0.07 c 5.22,19.23 15.71,23.21 28.96,19.62 13.48,-3.66 29.87,-14.79 46.57,-26.13 2.68,-1.82 5.38,-3.65 7.54,-5.1 27.4,-19.72 57.51,21.95 78.59,51.13 6.76,9.35 12.55,17.38 16.87,21.44 15.61,12.97 31.85,23.31 48.09,27.94 16.04,4.58 32.11,3.55 47.57,-6.11 13.26,-8.24 19.81,-18.02 22.95,-29.24 3.18,-11.4 2.91,-24.45 2.52,-38.9 -0.41,-15.14 -3.59,-32.68 -8.92,-48.23 -4.77,-13.91 -11.23,-26.14 -18.92,-33.49 -27.88,-21.33 -15.42,-40.39 7.72,-75.78 5.49,-8.39 11.59,-17.73 17.81,-28.11 0.5,-1.1 0.92,-2.18 1.26,-3.25 2.83,-8.67 1.08,-16.72 -3.46,-23.54 -4.64,-6.98 -12.18,-12.72 -20.75,-16.61 -2.12,-0.96 -4.29,-1.81 -6.49,-2.53 l -0.07,-0.02 c -11.07,-3.51 -25.4,-8.21 -40.31,-13.25 -12.95,-4.38 -26.25,-8.98 -38.07,-13.24 -0.66,-0.13 -1.39,-0.27 -2.18,-0.4 -25.24,-4.28 -50.29,5.17 -69.85,19.7 -19.57,14.54 -33.6,34.07 -36.83,49.98 z"
   stroke-linecap="round"
   id="path2" />&#10;</g>&#10;		<g
   transform="matrix(0.23400431,0,0,0.23400431,-4.9479209,-3.4172583)"
   id="g3">&#10;<path
   style="opacity:1;fill:#a72e8a;fill-rule:nonzero;stroke:none;stroke-width:1;stroke-linecap:butt;stroke-linejoin:miter;stroke-miterlimit:4;stroke-dasharray:none;stroke-dashoffset:0"
   paint-order="stroke"
   transform="translate(-454.56334,-458.09879)"
   d="m 350.68,347.17 0.24,-0.7 c 7.3,-20.8 28.77,-44.16 54.93,-60.09 26.23,-15.98 57.26,-24.56 83.59,-15.73 0.29,0.1 0.57,0.19 0.84,0.29 0.18,0.06 0.35,0.15 0.51,0.26 12.72,8.11 28.62,15.94 44.45,22.27 16.13,6.44 32.16,11.31 44.62,13.31 h 0.02 v 0 c 2.7,0.47 5.45,1.15 8.19,2.03 11.19,3.61 22.12,10.56 29.72,19.7 7.71,9.28 12.03,20.8 9.85,33.43 -0.32,1.84 -0.78,3.71 -1.39,5.62 -0.04,0.14 -0.1,0.27 -0.17,0.39 -7.21,14.09 -14.35,26.07 -20.63,36.59 -19.26,32.29 -30.14,50.52 -7.73,72.51 0.11,0.11 0.21,0.23 0.29,0.36 7.7,10.6 12.79,26.4 15.37,42.96 2.89,18.47 2.68,37.96 -0.47,52.23 -0.93,4.22 -1.64,8.14 -2.3,11.82 -3.61,19.97 -5.98,33.07 -34.49,50.33 l -0.09,0.05 c -18.95,11.54 -35.12,15.7 -51.77,13.88 -16.56,-1.8 -33.43,-9.52 -53.9,-21.77 -0.05,-0.03 -0.11,-0.07 -0.16,-0.1 -6.18,-4.52 -13.96,-13.81 -22.82,-24.4 -21.83,-26.1 -50.48,-60.34 -74.8,-46.47 l -0.11,0.06 v 0 c -4,1.95 -5.55,2.71 -7.03,3.44 -16.1,7.92 -31.69,15.59 -45.11,18.56 -18.77,4.16 -33.17,-0.56 -38.68,-25.4 l -0.02,-0.1 v 0 c -6.09,-36.41 28.58,-77.3 49,-101.37 6.89,-8.13 12.11,-14.28 13.32,-17.33 0.04,-0.09 0.08,-0.18 0.13,-0.26 2.01,-4.4 1.39,-13.02 0.62,-23.76 -1.27,-17.68 -2.93,-40.9 6.02,-62.6 z m 4.06,0.63 -0.24,0.71 -0.05,0.13 c -8.62,20.83 -6.99,43.55 -5.75,60.85 0.81,11.3 1.46,20.38 -0.99,25.74 l -0.02,0.05 c -1.45,3.65 -6.86,10.03 -14,18.45 -19.96,23.54 -53.88,63.52 -48.09,98.09 4.86,21.73 17.45,25.87 33.84,22.23 12.95,-2.87 28.33,-10.44 44.21,-18.25 3.19,-1.57 6.33,-3.11 7.03,-3.45 v 0 c 27.22,-15.38 57.05,20.27 79.78,47.45 8.67,10.36 16.27,19.45 22.05,23.7 19.95,11.92 36.31,19.43 52.16,21.15 15.73,1.71 31.11,-2.28 49.25,-13.32 l 0.09,-0.06 c 26.96,-16.32 29.19,-28.7 32.61,-47.57 0.67,-3.72 1.39,-7.68 2.34,-11.98 3.05,-13.81 3.24,-32.75 0.42,-50.74 -2.5,-15.97 -7.34,-31.12 -14.62,-41.17 -24.52,-24.16 -13.06,-43.37 7.21,-77.36 6.25,-10.48 13.36,-22.4 20.47,-36.29 0.52,-1.65 0.92,-3.29 1.2,-4.92 1.96,-11.34 -1.97,-21.75 -8.96,-30.16 -7.1,-8.55 -17.34,-15.05 -27.85,-18.44 -2.53,-0.82 -5.09,-1.45 -7.63,-1.89 v 0 c -12.75,-2.04 -29.07,-7 -45.46,-13.55 -16,-6.39 -32.1,-14.32 -45.01,-22.54 l -0.58,-0.2 c -25.07,-8.41 -54.87,-0.07 -80.2,15.35 -25.41,15.48 -46.21,38.02 -53.22,57.97 z"
   stroke-linecap="round"
   id="path3" />&#10;</g>&#10;		<g
   transform="matrix(0.23400431,0,0,0.23400431,-3.3268359,-3.6404938)"
   id="g4">&#10;<path
   style="opacity:1;fill:#ae2c83;fill-rule:nonzero;stroke:none;stroke-width:1;stroke-linecap:butt;stroke-linejoin:miter;stroke-miterlimit:4;stroke-dasharray:none;stroke-dashoffset:0"
   paint-order="stroke"
   transform="translate(-461.49092,-457.14481)"
   d="m 326.45,331.49 c 0.49,-1.09 1,-2.17 1.54,-3.22 12.18,-24.06 39.8,-48.95 70.63,-64.98 30.99,-16.11 65.35,-23.33 90.86,-11.9 0.84,0.38 1.65,0.76 2.43,1.16 0.17,0.09 0.33,0.2 0.47,0.32 13.06,11.75 30.75,22.53 48.75,30.58 18.36,8.21 37,13.57 51.31,14.21 h 0.03 c 3.24,0.19 6.58,0.7 9.95,1.51 13.01,3.13 26.45,10.72 36.42,21.23 10.07,10.62 16.64,24.22 15.77,39.25 -0.16,2.73 -0.57,5.52 -1.25,8.35 -0.03,0.13 -0.07,0.25 -0.12,0.36 v 0 c -7.7,17.64 -15.7,32.11 -22.61,44.62 -17.36,31.4 -27.71,50.12 -7.76,74.67 0.1,0.13 0.19,0.26 0.26,0.41 7.42,13.65 10.86,33 11,52.12 0.16,20.72 -3.55,41.27 -10.23,54.07 -2.62,5.02 -4.48,9.33 -6.11,13.11 -6.12,14.18 -9.2,21.32 -40.07,39.65 l -0.09,0.05 c -21.43,12.82 -36.68,20.02 -52.95,21.23 -16.29,1.22 -33.34,-3.59 -58.33,-14.78 -0.07,-0.03 -0.14,-0.07 -0.2,-0.1 -7.91,-4.57 -17.63,-14.71 -28.49,-26.03 -23.18,-24.18 -51.74,-53.96 -76.1,-43.47 -0.09,0.04 -0.18,0.07 -0.27,0.1 l -4.55,1.5 c -14.55,4.79 -28.6,9.42 -41.11,11.58 -23.92,4.13 -42.04,-0.6 -47.01,-29.37 -0.02,-0.1 -0.03,-0.2 -0.03,-0.3 -3.21,-32.58 20.44,-71.04 37.61,-98.96 9.52,-15.48 16.98,-27.61 16.41,-32.74 -0.01,-0.09 -0.01,-0.18 -0.01,-0.27 -0.14,-3.23 -1.13,-8 -2.35,-13.85 -4.39,-21.11 -11.62,-55.86 6.2,-90.09 l 0.01,-0.03 z m 5.37,-1.28 c -0.52,1.04 -1.01,2.05 -1.46,3.04 -0.03,0.09 -0.07,0.17 -0.11,0.26 -17.11,32.88 -10.08,66.69 -5.81,87.23 1.25,6.02 2.28,10.94 2.43,14.55 0.7,6.61 -7.09,19.28 -17.02,35.43 -16.86,27.42 -40.08,65.19 -37,96.32 4.4,25.38 20.61,29.51 42.04,25.81 12.17,-2.1 26.08,-6.68 40.49,-11.43 l 4.55,-1.49 c 27.07,-11.56 56.72,19.36 80.8,44.48 10.6,11.06 20.09,20.95 27.47,25.25 24.24,10.85 40.67,15.51 56.13,14.36 15.46,-1.15 30.22,-8.15 51.07,-20.63 l 0.1,-0.06 c 29.66,-17.61 32.55,-24.32 38.31,-37.65 1.63,-3.77 3.48,-8.06 6.26,-13.4 6.36,-12.19 9.9,-32 9.74,-52.07 -0.14,-18.43 -3.4,-37 -10.43,-50 -21.61,-26.72 -10.74,-46.38 7.46,-79.29 6.87,-12.42 14.8,-26.77 22.38,-44.11 0.59,-2.49 0.94,-4.96 1.08,-7.39 0.8,-13.74 -5.28,-26.24 -14.59,-36.06 -9.41,-9.92 -22.07,-17.08 -34.3,-20.02 -3.11,-0.75 -6.2,-1.22 -9.2,-1.39 -14.85,-0.67 -34.03,-6.17 -52.85,-14.58 -18.3,-8.18 -36.3,-19.14 -49.67,-31.11 -0.67,-0.34 -1.34,-0.65 -1.99,-0.94 -24.18,-10.83 -57.18,-3.76 -87.13,11.8 -30.1,15.65 -56.99,39.82 -68.78,63.1 z"
   stroke-linecap="round"
   id="path4" />&#10;</g>&#10;		<g
   transform="matrix(0.23400431,0,0,0.23400431,-1.7002048,-3.6516337)"
   id="g5">&#10;<path
   style="opacity:1;fill:#b5297b;fill-rule:nonzero;stroke:none;stroke-width:1;stroke-linecap:butt;stroke-linejoin:miter;stroke-miterlimit:4;stroke-dasharray:none;stroke-dashoffset:0"
   paint-order="stroke"
   transform="translate(-468.44221,-457.09721)"
   d="m 302.13,316.03 c 1.6,-3.02 3.43,-6.05 5.45,-9.08 17.67,-26.35 50.58,-51.72 85.14,-67.26 34.79,-15.64 71.39,-21.37 96.16,-8.26 1.59,0.84 3.14,1.76 4.64,2.77 0.18,0.12 0.34,0.27 0.48,0.43 13.39,15.33 32.81,28.99 52.93,38.76 20.63,10.01 41.93,15.88 58.12,15.18 h 0.08 c 3.81,-0.11 7.79,0.22 11.83,0.97 14.74,2.72 30.54,10.92 42.78,22.71 12.31,11.86 21.07,27.37 21.6,44.65 0.12,3.79 -0.16,7.67 -0.89,11.6 -0.02,0.13 -0.06,0.26 -0.1,0.38 h 0.01 c -7.84,21.14 -16.58,37.95 -24.05,52.34 -15.97,30.74 -26.05,50.14 -8.3,77.08 0.08,0.12 0.14,0.24 0.19,0.36 v 0 c 7.19,16.88 8.86,40.04 6.39,61.81 -2.58,22.74 -9.72,44.11 -19.84,55.41 -3.28,3.66 -5.86,6.71 -8.01,9.25 -10.03,11.84 -10.77,12.71 -47.42,34.15 -5.32,3.13 -10.02,5.99 -14.38,8.63 -36.52,22.17 -49.89,30.29 -102.64,12.17 -0.12,-0.04 -0.23,-0.09 -0.34,-0.15 -9.77,-4.55 -21.5,-15.3 -34.37,-27.1 -24.27,-22.26 -52.71,-48.33 -77.12,-40.97 -0.11,0.03 -0.22,0.06 -0.34,0.07 -23.1,4.37 -44.9,8.47 -61.82,5.98 -17.64,-2.59 -29.89,-12.09 -32.73,-35.09 -0.02,-0.13 -0.02,-0.25 -0.01,-0.38 -1.11,-29.35 15.63,-65.08 29.45,-94.58 10.97,-23.42 20.05,-42.8 16.56,-50.52 l -0.06,-0.15 c -0.47,-1.21 -0.9,-2.29 -1.38,-3.46 -8.35,-20.81 -27.36,-68.19 1.98,-117.73 z m 9.23,-6.55 c -1.93,2.88 -3.67,5.77 -5.21,8.67 -0.03,0.05 -0.05,0.1 -0.08,0.16 -28.23,47.63 -9.79,93.58 -1.69,113.76 0.54,1.35 1.04,2.6 1.4,3.51 4.26,9.63 -5.2,29.83 -16.63,54.23 -13.61,29.06 -30.1,64.25 -29.02,92.51 2.53,20.41 13.33,28.82 28.86,31.11 16.19,2.38 37.61,-1.64 60.31,-5.94 26.85,-8 56.27,18.98 81.4,42.02 12.58,11.54 24.06,22.06 33.19,26.32 50.67,17.4 63.57,9.57 98.72,-11.77 4.48,-2.72 9.3,-5.65 14.43,-8.67 35.97,-21.04 36.67,-21.87 46.24,-33.18 2.07,-2.45 4.57,-5.39 8.1,-9.34 9.48,-10.59 16.21,-31 18.7,-52.88 2.39,-21.02 0.83,-43.27 -5.98,-59.38 -19.04,-29.07 -8.5,-49.36 8.19,-81.47 7.4,-14.23 16.03,-30.85 23.77,-51.68 0.64,-3.54 0.88,-7.02 0.78,-10.42 -0.49,-15.97 -8.68,-30.4 -20.21,-41.5 -11.61,-11.18 -26.55,-18.94 -40.45,-21.51 -3.74,-0.69 -7.4,-1 -10.88,-0.9 h -0.03 c -16.95,0.73 -39.02,-5.32 -60.28,-15.63 -20.55,-9.97 -40.42,-23.95 -54.21,-39.67 -1.28,-0.85 -2.61,-1.63 -3.99,-2.36 -23.42,-12.39 -58.56,-6.73 -92.19,8.39 -33.84,15.22 -66.02,39.98 -83.22,65.64 z"
   stroke-linecap="round"
   id="path5" />&#10;</g>&#10;		<g
   transform="matrix(0.23400431,0,0,0.23400431,-0.06975451,-3.5084364)"
   id="g6">&#10;<path
   style="opacity:1;fill:#bc2674;fill-rule:nonzero;stroke:none;stroke-width:1;stroke-linecap:butt;stroke-linejoin:miter;stroke-miterlimit:4;stroke-dasharray:none;stroke-dashoffset:0"
   paint-order="stroke"
   transform="translate(-475.40982,-457.70915)"
   d="m 277.82,300.55 c 3.56,-6.02 7.87,-11.99 12.81,-17.85 23.27,-27.59 60.56,-52.56 97.95,-67.12 37.67,-14.67 75.58,-18.8 99.77,-4.52 2.4,1.42 4.68,3.02 6.81,4.82 0.15,0.13 0.28,0.27 0.39,0.42 13.74,18.93 34.93,35.52 57.2,47.01 22.9,11.82 46.87,18.21 64.97,16.18 l 0.14,-0.01 c 4.39,-0.43 9.02,-0.28 13.78,0.41 16.44,2.37 34.52,11.16 48.95,24.14 14.49,13.04 25.36,30.36 27.32,49.77 0.5,4.96 0.42,10.04 -0.32,15.21 -0.02,0.15 -0.05,0.29 -0.1,0.42 -7.75,24.68 -17.13,43.67 -25.14,59.86 -14.96,30.28 -24.94,50.48 -9.19,79.66 0.06,0.12 0.12,0.24 0.16,0.37 6.9,20.17 6.68,47.19 1.45,71.56 -5.29,24.64 -15.75,46.72 -29.21,56.54 -12.96,9.46 -16.84,10.94 -23.43,13.47 -6.6,2.53 -16.02,6.14 -41.18,20.69 -12.8,7.46 -22.56,14.4 -30.95,20.37 -26.74,19.03 -40.02,28.48 -91.71,14.7 -0.07,-0.02 -0.15,-0.04 -0.22,-0.07 -11.85,-4.37 -25.85,-15.72 -40.95,-27.96 -25.1,-20.35 -53.32,-43.23 -77.72,-38.8 -0.09,0.02 -0.18,0.03 -0.26,0.03 v 0.01 c -24.64,1.67 -47.55,2.62 -64.91,-2.39 -17.98,-5.19 -29.92,-16.55 -31.63,-39.53 -0.01,-0.13 -0.01,-0.26 0,-0.39 0.45,-26.29 12.46,-58.72 23.33,-88.06 11.8,-31.86 22.22,-59.98 14.7,-70.73 l -0.04,-0.07 v 0 c -6.93,-10.72 -17.46,-29.93 -21.34,-54.12 -3.89,-24.24 -1.11,-53.44 18.57,-84.02 z m 16.47,-14.74 c -4.77,5.65 -8.93,11.41 -12.35,17.21 l -0.05,0.07 c -18.96,29.43 -21.64,57.46 -17.91,80.72 3.74,23.32 13.92,41.89 20.63,52.26 v 0 c 8.88,12.86 -1.92,42.03 -14.16,75.07 -10.74,29.01 -22.62,61.07 -23.05,86.5 1.54,20.48 12.16,30.6 28.14,35.22 16.59,4.79 39.03,3.85 63.22,2.21 26.51,-4.66 55.55,18.88 81.39,39.83 14.73,11.94 28.39,23.02 39.5,27.15 49.41,13.16 62.08,4.14 87.57,-14 8.48,-6.04 18.35,-13.06 31.33,-20.62 25.53,-14.76 35.14,-18.45 41.88,-21.03 6.24,-2.39 9.92,-3.8 22.32,-12.85 12.47,-9.1 22.27,-30.08 27.33,-53.67 5.05,-23.54 5.31,-49.52 -1.24,-68.84 -16.78,-31.26 -6.37,-52.32 9.22,-83.87 7.91,-16 17.18,-34.76 24.81,-59.03 0.67,-4.73 0.73,-9.36 0.28,-13.87 -1.83,-18.1 -12.08,-34.36 -25.76,-46.67 -13.74,-12.37 -30.87,-20.72 -46.41,-22.96 -4.39,-0.63 -8.64,-0.78 -12.63,-0.39 l -0.09,0.01 c -19.04,2.14 -44,-4.46 -67.69,-16.69 -22.8,-11.76 -44.52,-28.77 -58.72,-48.22 -1.85,-1.54 -3.83,-2.93 -5.93,-4.17 -22.8,-13.46 -59.19,-9.32 -95.59,4.86 -36.68,14.29 -73.23,38.75 -96.01,65.75 z"
   stroke-linecap="round"
   id="path6" />&#10;</g>&#10;		<g
   transform="matrix(0.23400431,0,0,0.23400431,1.5069973,-3.2541708)"
   id="g7">&#10;<path
   style="opacity:1;fill:#c3236c;fill-rule:nonzero;stroke:none;stroke-width:1;stroke-linecap:butt;stroke-linejoin:miter;stroke-miterlimit:4;stroke-dasharray:none;stroke-dashoffset:0"
   paint-order="stroke"
   transform="translate(-482.14795,-458.79574)"
   d="m 253.61,284.94 c 6.37,-9.95 14.56,-19.68 24.09,-28.96 28.56,-27.82 69.23,-51.66 108.54,-64.85 39.64,-13.3 78.07,-15.78 101.73,-0.67 3.22,2.05 6.16,4.42 8.79,7.12 0.17,0.17 0.31,0.36 0.41,0.56 14.11,22.44 37,41.89 61.37,55.09 25.19,13.64 51.84,20.57 71.85,17.2 l 0.15,-0.02 c 4.98,-0.78 10.3,-0.82 15.79,-0.2 18.13,2.06 38.41,11.41 54.98,25.56 16.61,14.19 29.55,33.24 32.96,54.7 0.98,6.19 1.17,12.57 0.44,19.07 -0.02,0.16 -0.05,0.31 -0.09,0.46 -7.45,28.24 -17.45,49.3 -25.98,67.26 -14.24,29.99 -24.25,51.08 -10.35,82.36 0.05,0.11 0.09,0.23 0.13,0.35 v 0 c 6.58,23.49 4.39,54.37 -3.67,81.27 -7.94,26.48 -21.64,49.25 -38.38,57.63 -14.14,7.08 -19.92,7.04 -26.04,7.01 -7.77,-0.05 -16.15,-0.1 -47.74,18.01 -0.06,0.03 -0.12,0.06 -0.17,0.09 -17.94,10.36 -29.6,20.56 -39.44,29.16 -22.27,19.48 -35.57,31.11 -88.73,20.06 -0.07,-0.01 -0.13,-0.03 -0.2,-0.05 -14.15,-4.18 -30.61,-16.03 -48.06,-28.6 -25.61,-18.45 -53.42,-38.49 -77.68,-36.79 -0.14,0.01 -0.28,0.01 -0.41,-0.01 -26.1,-1.05 -50.04,-3.28 -67.74,-10.78 -18.31,-7.75 -29.94,-20.98 -30.52,-43.93 0,-0.07 0,-0.15 0,-0.22 v 0 c 1.52,-23.06 10.2,-51.64 18.6,-79.33 12.32,-40.59 24.05,-79.22 11.43,-93.49 -0.04,-0.05 -0.08,-0.09 -0.11,-0.14 -12.28,-14.62 -28.99,-42.12 -30.33,-76.77 -0.91,-23.4 5.19,-50.03 24.36,-78.09 l 0.05,-0.07 z m 27.61,-25.33 c -9.27,9.03 -17.22,18.46 -23.36,28.06 -0.04,0.07 -0.08,0.13 -0.12,0.2 -18.49,27.05 -24.36,52.63 -23.49,75.06 1.29,33.24 17.36,59.66 29.16,73.72 l 0.02,0.02 c 14.49,16.38 2.36,56.33 -10.38,98.3 -8.31,27.37 -16.88,55.62 -18.38,78.11 0.57,20.48 11.01,32.3 27.43,39.25 16.99,7.19 40.38,9.35 65.97,10.38 26.03,-1.76 54.57,18.8 80.86,37.75 17.04,12.28 33.12,23.86 46.44,27.82 50.61,10.5 63.2,-0.51 84.27,-18.94 10,-8.75 21.85,-19.11 40.24,-29.73 0.06,-0.04 0.12,-0.08 0.19,-0.12 32.75,-18.77 41.84,-18.71 50.28,-18.66 5.51,0.03 10.71,0.06 23.76,-6.47 15.41,-7.72 28.22,-29.3 35.79,-54.57 7.8,-26.02 9.96,-55.78 3.69,-78.32 -14.72,-33.3 -4.31,-55.22 10.48,-86.37 8.43,-17.74 18.31,-38.56 25.63,-66.29 0.67,-6 0.49,-11.86 -0.42,-17.54 -3.2,-20.17 -15.48,-38.18 -31.25,-51.65 -15.82,-13.51 -35.09,-22.42 -52.25,-24.38 -5.08,-0.58 -9.94,-0.55 -14.46,0.16 l -0.1,0.02 c -21.12,3.56 -48.96,-3.59 -75.07,-17.74 -25.02,-13.55 -48.57,-33.57 -63.17,-56.75 -2.32,-2.36 -4.91,-4.43 -7.71,-6.23 -22.26,-14.21 -59.11,-11.65 -97.42,1.21 -38.64,12.96 -78.58,36.38 -106.62,63.69 z"
   stroke-linecap="round"
   id="path7" />&#10;</g>&#10;		<g
   transform="matrix(0.23400431,0,0,0.23400431,1.3029849,-2.9361512)"
   id="g8">&#10;<path
   style="opacity:1;fill:#cb2165;fill-rule:nonzero;stroke:none;stroke-width:1;stroke-linecap:butt;stroke-linejoin:miter;stroke-miterlimit:4;stroke-dasharray:none;stroke-dashoffset:0"
   paint-order="stroke"
   transform="translate(-481.27612,-460.15477)"
   d="m 229.3,269.47 c 10.04,-14.79 23.7,-29.01 39.62,-42.06 33.15,-27.16 76.19,-49.33 116.61,-60.89 40.78,-11.66 79.06,-12.5 102.22,3.18 4.01,2.71 7.55,5.9 10.57,9.58 0.14,0.17 0.26,0.36 0.35,0.56 14.49,26.02 39.13,48.36 65.64,63.29 27.47,15.47 56.82,22.95 78.75,18.23 l 0.17,-0.03 c 5.55,-1.13 11.55,-1.37 17.79,-0.81 19.81,1.78 42.25,11.67 60.9,26.95 18.69,15.3 33.66,36.05 38.51,59.52 1.54,7.45 2.06,15.17 1.35,23.09 -0.01,0.11 -0.03,0.22 -0.05,0.33 h 0.01 c -6.96,31.86 -17.6,54.96 -26.7,74.72 -13.73,29.83 -23.88,51.86 -11.66,85.14 0.05,0.14 0.09,0.29 0.12,0.44 6.19,26.79 1.97,61.45 -8.96,90.76 -10.54,28.3 -27.42,51.77 -47.38,58.75 -16.92,5.92 -24.03,3.68 -30.94,1.51 -8.78,-2.76 -17.19,-5.4 -52.04,14.41 v 0 c -22.12,12.64 -34.49,25.89 -44.95,37.11 -19.83,21.24 -33.12,35.48 -89.07,26.47 -0.06,-0.01 -0.12,-0.02 -0.19,-0.04 v 0 c -16.79,-3.93 -36.04,-16.32 -56.12,-29.24 -25.72,-16.56 -52.84,-34.01 -76.68,-34.81 -0.09,0 -0.18,-0.01 -0.27,-0.02 -27.68,-3.77 -52.73,-9.16 -70.85,-19.17 -18.65,-10.3 -29.98,-25.38 -29.44,-48.33 0,-0.08 0.01,-0.15 0.02,-0.23 v 0 c 2.2,-19.45 8.37,-43.28 14.67,-67.6 12.79,-49.38 26.12,-100.85 7.31,-119.11 l -0.06,-0.06 c -16.08,-16.18 -35.89,-45.75 -37.92,-83.42 -1.41,-26.14 5.74,-56.13 28.61,-88.17 l 0.05,-0.07 z m 42.99,-37.94 c -15.57,12.76 -28.89,26.6 -38.61,40.92 -0.03,0.06 -0.07,0.11 -0.11,0.17 -22.08,30.92 -28.99,59.76 -27.64,84.82 1.94,36.09 20.97,64.46 36.41,79.98 20.97,20.43 7.26,73.39 -5.91,124.22 -6.24,24.08 -12.35,47.68 -14.52,66.78 -0.43,20.53 9.84,34.07 26.7,43.39 17.42,9.63 41.84,14.86 68.9,18.55 25.29,0.92 52.96,18.73 79.21,35.63 19.68,12.67 38.54,24.81 54.43,28.53 53.03,8.51 65.54,-4.89 84.19,-24.87 10.73,-11.49 23.4,-25.07 46.2,-38.1 v 0 h 0.01 c 36.87,-20.96 46.35,-17.98 56.24,-14.88 6.09,1.91 12.36,3.88 27.61,-1.45 18.35,-6.42 34.12,-28.65 44.15,-55.59 10.58,-28.41 14.7,-61.89 8.76,-87.68 -12.88,-35.24 -2.36,-58.1 11.88,-89.03 8.97,-19.49 19.46,-42.26 26.3,-73.53 0.63,-7.3 0.14,-14.43 -1.28,-21.33 -4.58,-22.16 -18.84,-41.86 -36.68,-56.46 -17.87,-14.63 -39.24,-24.1 -57.99,-25.78 -5.74,-0.52 -11.22,-0.3 -16.27,0.73 l -0.13,0.03 c -23.2,4.99 -53.92,-2.72 -82.45,-18.8 -27.26,-15.35 -52.64,-38.38 -67.63,-65.27 -2.69,-3.25 -5.81,-6.05 -9.31,-8.42 -21.73,-14.72 -58.41,-13.71 -97.79,-2.45 -39.75,11.37 -82.09,33.18 -114.69,59.89 z"
   stroke-linecap="round"
   id="path8" />&#10;</g>&#10;		<g
   transform="matrix(0.23400431,0,0,0.23400431,1.1119372,-2.5697609)"
   id="g9">&#10;<path
   style="opacity:1;fill:#d21e5e;fill-rule:nonzero;stroke:none;stroke-width:1;stroke-linecap:butt;stroke-linejoin:miter;stroke-miterlimit:4;stroke-dasharray:none;stroke-dashoffset:0"
   paint-order="stroke"
   transform="translate(-480.45969,-461.72051)"
   d="m 204.91,254.11 c 14.43,-20.36 35.18,-39.58 59.15,-56.39 36.82,-25.82 81.31,-45.97 122.12,-55.75 41.22,-9.88 78.87,-9.18 101.5,6.86 4.75,3.37 8.84,7.41 12.18,12.17 0.09,0.13 0.16,0.26 0.23,0.39 14.86,29.66 41.3,54.95 69.99,71.65 29.76,17.31 61.81,25.33 85.67,19.27 l 0.13,-0.03 c 6.15,-1.5 12.84,-1.96 19.84,-1.47 21.46,1.51 46.02,11.96 66.75,28.35 20.75,16.4 37.72,38.8 44,64.22 2.17,8.77 3.06,17.89 2.4,27.24 -0.01,0.1 -0.02,0.2 -0.03,0.29 v 0 c -6.32,35.47 -17.57,60.47 -27.26,82.02 -13.41,29.8 -23.76,52.83 -13.11,87.99 0.04,0.15 0.08,0.3 0.1,0.45 5.8,30.1 -0.47,68.54 -14.29,100.25 -13.12,30.11 -33.13,54.3 -56.26,59.91 -19.96,4.84 -28.28,0.22 -36.06,-4.1 -9.72,-5.4 -18.49,-10.27 -56.15,11 v 0 c -25.52,14.48 -38.02,30.63 -48.71,44.44 -18.28,23.62 -31.51,40.72 -91.01,33.38 -0.14,-0.02 -0.28,-0.05 -0.41,-0.08 -19.86,-3.7 -42.32,-16.7 -65.34,-30.02 -25.27,-14.62 -51.22,-29.64 -74.3,-32.64 -0.12,-0.02 -0.24,-0.04 -0.35,-0.07 -29.15,-6.5 -55.22,-15.05 -73.68,-27.53 -19,-12.84 -30.04,-29.77 -28.38,-52.72 0.01,-0.15 0.03,-0.3 0.07,-0.44 2.4,-15.22 6.57,-33.18 10.99,-52.17 13.44,-57.81 29.15,-125.37 2.89,-148.28 l -0.11,-0.1 c -19.83,-17.77 -42.68,-49.44 -45.37,-90.1 -1.91,-28.81 6.29,-62.08 32.82,-98.02 z m 62.33,-51.84 c -23.46,16.45 -43.74,35.22 -57.8,55.06 l -0.03,0.04 c -25.66,34.74 -33.6,66.76 -31.77,94.4 2.58,38.93 24.5,69.29 43.54,86.33 l 0.04,0.04 c 28.77,25.1 12.66,94.4 -1.12,153.7 -4.41,18.97 -8.58,36.9 -10.93,51.79 -1.48,20.64 8.61,35.96 25.95,47.68 17.84,12.05 43.25,20.37 71.75,26.72 24.16,3.18 50.55,18.46 76.25,33.32 22.63,13.1 44.71,25.87 63.59,29.38 l 0.05,0.01 c 56.38,6.95 68.79,-9.1 85.94,-31.25 11.01,-14.22 23.87,-30.85 50.37,-45.88 v 0 h 0.01 c 40.37,-22.81 50.43,-17.22 61.58,-11.03 6.86,3.81 14.2,7.89 32.06,3.56 21.29,-5.16 39.99,-28.09 52.47,-56.73 13.4,-30.76 19.5,-67.95 13.92,-96.98 -11.19,-37.08 -0.47,-60.93 13.41,-91.78 9.55,-21.22 20.62,-45.84 26.83,-80.57 0.59,-8.71 -0.25,-17.2 -2.26,-25.36 -5.96,-24.14 -22.19,-45.5 -42.04,-61.2 -19.87,-15.71 -43.3,-25.71 -63.68,-27.15 -6.46,-0.45 -12.58,-0.05 -18.16,1.32 l -0.1,0.03 c -25.28,6.42 -58.86,-1.86 -89.8,-19.86 -29.49,-17.16 -56.71,-43.21 -72.09,-73.82 -2.93,-4.15 -6.55,-7.69 -10.74,-10.67 -21.22,-15.04 -57.24,-15.52 -96.99,-5.99 -40.16,9.63 -83.96,29.47 -120.23,54.9 z"
   stroke-linecap="round"
   id="path9" />&#10;</g>&#10;		<g
   transform="matrix(0.23400431,0,0,0.23400431,0.9183918,-2.1736828)"
   id="g10">&#10;<path
   style="opacity:1;fill:#d91b56;fill-rule:nonzero;stroke:none;stroke-width:1;stroke-linecap:butt;stroke-linejoin:miter;stroke-miterlimit:4;stroke-dasharray:none;stroke-dashoffset:0"
   paint-order="stroke"
   transform="translate(-479.63259,-463.41312)"
   d="m 180.6,238.65 c 19.45,-26.45 48.7,-50.89 81.85,-71.04 39.56,-24.05 84.71,-42.02 125.37,-50.02 41.1,-8.08 77.8,-5.96 99.92,10.31 5.5,4.05 10.11,8.97 13.67,14.82 0.06,0.1 0.11,0.2 0.16,0.3 v 0 c 15.23,33.26 43.44,61.48 74.29,79.92 32.04,19.16 66.8,27.72 92.58,20.32 l 0.15,-0.04 c 6.72,-1.87 14.1,-2.54 21.85,-2.12 23.12,1.26 49.78,12.24 72.54,29.71 22.77,17.48 41.72,41.51 49.42,68.87 2.84,10.1 4.15,20.65 3.56,31.49 0,0.09 -0.01,0.18 -0.03,0.26 v 0 c -5.55,39.08 -17.41,65.89 -27.73,89.23 -13.22,29.89 -23.86,53.95 -14.67,90.92 0.03,0.1 0.04,0.2 0.06,0.31 5.24,32.2 -2.3,72.59 -17.81,105.99 -15.67,33.72 -39.56,60.48 -66.85,64.94 l -0.03,0.01 c -23.07,3.75 -32.54,-3.34 -41.19,-9.83 -10.66,-7.99 -19.92,-14.94 -60.29,7.75 -0.06,0.04 -0.13,0.07 -0.19,0.1 -28.41,16.07 -40.75,34.98 -51.44,51.37 -17.16,26.31 -30.28,46.42 -93.79,40.58 l -0.14,-0.02 v 0 c -23.75,-3.3 -50.43,-17.31 -77.24,-31.39 -23.97,-12.59 -48.05,-25.23 -69.72,-30.01 -0.07,-0.02 -0.14,-0.03 -0.2,-0.05 v 0.01 c -30.68,-9.22 -57.83,-20.95 -76.73,-35.95 -19.36,-15.37 -30.12,-34.14 -27.34,-57.11 0.01,-0.09 0.03,-0.18 0.04,-0.27 1.85,-9.36 4.32,-20.44 6.97,-32.31 14.44,-64.77 34.28,-153.71 -1.15,-182.24 l -0.14,-0.12 c -23.57,-19.36 -49.47,-53.17 -52.82,-96.9 -2.41,-31.45 6.85,-67.97 37.05,-107.79 h -0.01 z m 84.85,-66.08 c -32.51,19.77 -61.17,43.69 -80.16,69.51 h -0.01 l -0.03,0.04 c -29.24,38.53 -38.21,73.7 -35.9,103.89 3.2,41.84 28.09,74.27 50.72,92.86 l 0.07,0.06 c 38.24,30.79 17.95,121.77 3.18,188.02 -2.56,11.47 -4.95,22.19 -6.91,32.11 -2.46,20.64 7.43,37.68 25.19,51.77 18.25,14.49 44.74,25.9 74.77,34.92 22.4,4.99 46.74,17.77 70.97,30.49 26.36,13.84 52.59,27.61 75.33,30.78 59.91,5.48 72.2,-13.36 88.26,-37.98 11.04,-16.93 23.79,-36.46 53.43,-53.24 0.07,-0.05 0.14,-0.09 0.22,-0.14 43.66,-24.53 54.33,-16.53 66.62,-7.31 7.7,5.78 16.13,12.1 36.78,8.74 l 0.03,-0.01 c 25.2,-4.12 47.59,-29.53 62.5,-61.63 15.06,-32.43 22.41,-71.52 17.36,-102.58 -9.62,-38.84 1.37,-63.68 15.02,-94.54 10.16,-22.98 21.84,-49.38 27.28,-87.6 0.53,-10.13 -0.7,-20 -3.37,-29.46 -7.34,-26.07 -25.5,-49.04 -47.35,-65.82 -21.87,-16.79 -47.34,-27.33 -69.31,-28.53 -7.14,-0.39 -13.89,0.21 -20,1.92 l -0.11,0.03 c -27.35,7.85 -63.8,-0.99 -97.16,-20.93 -31.72,-18.97 -60.76,-48.03 -76.52,-82.35 -3.13,-5.1 -7.19,-9.42 -12.05,-12.99 -20.7,-15.23 -55.78,-17.06 -95.37,-9.28 -40.04,7.87 -84.51,25.57 -123.48,49.26 z"
   stroke-linecap="round"
   id="path10" />&#10;</g>&#10;		<g
   transform="matrix(0.23400431,0,0,0.23400431,0.73628182,-1.7613129)"
   id="g11">&#10;<path
   style="opacity:1;fill:#e0184f;fill-rule:nonzero;stroke:none;stroke-width:1;stroke-linecap:butt;stroke-linejoin:miter;stroke-miterlimit:4;stroke-dasharray:none;stroke-dashoffset:0"
   paint-order="stroke"
   transform="translate(-478.85436,-465.17535)"
   d="m 156.29,223.18 c 24.95,-32.91 63.91,-62.63 106.94,-85.55 41.41,-22.05 86.64,-37.84 126.82,-44.12 40.62,-6.35 76.23,-2.98 97.85,13.4 6.24,4.73 11.33,10.55 15.04,17.52 0.04,0.08 0.08,0.17 0.12,0.25 15.62,36.84 45.58,67.96 78.58,88.15 34.33,21.01 71.8,30.12 99.52,21.37 l 0.16,-0.05 c 7.29,-2.25 15.35,-3.13 23.86,-2.78 24.76,1.02 53.5,12.54 78.29,31.09 24.78,18.55 45.68,44.18 54.79,73.45 3.56,11.45 5.33,23.45 4.82,35.82 0,0.07 -0.01,0.14 -0.01,0.2 v 0 c -4.67,42.67 -17.15,71.24 -28.15,96.4 -13.14,30.07 -24.11,55.17 -16.29,93.89 0.01,0.06 0.02,0.13 0.03,0.19 v 0 c 0.21,1.53 0.4,3.09 0.56,4.68 3.5,34.71 -6.06,76.74 -23.73,111.06 -17.83,34.65 -44.01,61.59 -73.58,65.67 -0.68,0.09 -1.37,0.18 -2.09,0.25 -26.22,2.64 -36.79,-6.98 -46.31,-15.64 -11.6,-10.56 -21.42,-19.49 -64.46,4.57 v 0 c -31.37,17.59 -43.47,39.28 -54.09,58.31 -16.29,29.19 -29.26,52.43 -97.04,47.99 -0.09,-0.01 -0.19,-0.02 -0.28,-0.03 -28.8,-2.97 -60.88,-18.5 -92.33,-33.73 -21.32,-10.32 -42.33,-20.5 -61.52,-26.36 l -0.17,-0.06 v 0.01 c -34.27,-12.72 -64.04,-28.8 -83.32,-47.8 -17.34,-17.08 -26.27,-36.52 -22.62,-58.03 0.01,-0.06 0.02,-0.13 0.04,-0.19 v 0 l 1.07,-4.56 c 15.66,-66.48 44.28,-187.96 -3.36,-224.01 l -0.77,-0.6 c -23.4,-18.15 -47.9,-47.32 -56.71,-84.86 -8.81,-37.55 -1.95,-83.35 37.35,-134.64 l 0.99,-1.28 v 0 z m 109.79,-80.21 c -42.3,22.53 -80.54,51.67 -104.94,83.86 v 0 l -1.01,1.31 c -38,49.59 -44.69,93.62 -36.26,129.58 8.44,35.97 31.99,63.99 54.5,81.44 l 0.72,0.55 c 50.79,38.44 21.59,162.4 5.61,230.23 l -1.06,4.49 c -3.23,19.29 5.01,36.93 20.91,52.59 18.62,18.34 47.64,33.97 81.18,46.42 v 0.01 c 19.65,6.03 40.79,16.26 62.22,26.64 30.99,15.01 62.62,30.32 90.34,33.16 h 0.01 c 63.98,4.2 76.12,-17.56 91.37,-44.88 11.02,-19.74 23.57,-42.24 56.42,-60.66 v 0 h 0.01 c 46.84,-26.2 58.15,-15.91 71.5,-3.77 8.57,7.8 18.1,16.47 41.63,14.1 0.61,-0.06 1.23,-0.14 1.87,-0.22 27.4,-3.78 52,-29.41 69,-62.44 17.16,-33.36 26.47,-74.12 23.08,-107.69 -0.15,-1.48 -0.33,-2.96 -0.53,-4.44 -8.14,-40.5 3.16,-66.36 16.7,-97.34 10.82,-24.75 23.1,-52.85 27.67,-94.57 0.46,-11.58 -1.21,-22.86 -4.56,-33.63 -8.71,-27.98 -28.8,-52.56 -52.63,-70.41 -23.83,-17.84 -51.33,-28.91 -74.89,-29.88 -7.83,-0.32 -15.21,0.48 -21.84,2.52 l -0.12,0.04 c -29.42,9.29 -68.75,-0.11 -104.51,-21.99 -33.93,-20.76 -64.78,-52.83 -80.94,-90.84 -3.27,-6.11 -7.77,-11.22 -13.3,-15.41 -20.22,-15.33 -54.2,-18.37 -93.26,-12.26 -39.51,6.18 -84.07,21.74 -124.89,43.48 z"
   stroke-linecap="round"
   id="path11" />&#10;</g>&#10;		<g
   transform="matrix(0.23400431,0,0,0.23400431,0.55020254,-1.3314957)"
   id="g12">&#10;<path
   style="opacity:1;fill:#e71547;fill-rule:nonzero;stroke:none;stroke-width:1;stroke-linecap:butt;stroke-linejoin:miter;stroke-miterlimit:4;stroke-dasharray:none;stroke-dashoffset:0"
   paint-order="stroke"
   transform="translate(-478.05916,-467.01215)"
   d="m 131.98,207.71 c 30.77,-39.57 80.38,-74.51 133.6,-99.54 42.58,-20.03 87.51,-33.75 126.95,-38.45 39.92,-4.76 74.42,-0.29 95.59,16.17 6.97,5.42 12.51,12.14 16.32,20.26 l 0.08,0.18 h 0.01 c 16,40.43 47.73,74.47 82.86,96.4 36.63,22.87 76.82,32.53 106.47,22.44 l 0.16,-0.05 c 7.87,-2.63 16.61,-3.73 25.87,-3.45 26.41,0.79 57.22,12.84 84,32.45 26.76,19.61 49.6,46.83 60.12,78.01 4.32,12.81 6.57,26.29 6.15,40.19 l -0.01,0.16 h 0.01 c -3.68,46.22 -16.8,76.49 -28.52,103.51 -13.15,30.33 -24.49,56.49 -17.95,96.91 l 0.02,0.14 h 0.01 c 0.34,2.96 0.6,6.02 0.76,9.17 1.91,37.11 -9.58,80.83 -29.34,116.17 -19.95,35.68 -48.41,62.94 -80.25,66.64 -1.33,0.15 -2.7,0.27 -4.13,0.34 -29.38,1.51 -41.05,-10.68 -51.42,-21.52 -12.54,-13.09 -22.95,-23.97 -68.66,1.48 -34,18.97 -45.79,43.37 -56.25,65.02 -15.56,32.19 -28.33,58.63 -100.6,55.51 h -0.07 v 0 c -36.21,-2.49 -76.47,-21 -114.42,-38.46 -16.15,-7.43 -31.89,-14.67 -46.65,-20.35 l -0.12,-0.05 c -35.53,-15.47 -66.12,-34.72 -85.74,-56.01 -18,-19.53 -26.86,-40.81 -22.11,-62.59 0.02,-0.08 0.04,-0.17 0.06,-0.24 10.96,-40.57 25.01,-105.2 22.45,-159.31 -1.7,-35.97 -10.71,-67.19 -32.88,-83.15 l -0.01,-0.01 v 0.01 c -1.87,-1.36 -3.87,-2.88 -5.99,-4.55 -25.16,-19.87 -49.85,-49.89 -58.86,-87.96 -9.01,-38.08 -2.34,-84.1 35.23,-135.85 2.21,-3.05 4.64,-6.24 7.27,-9.58 l -0.01,-0.01 z m 136.27,-93.83 c -52.37,24.63 -101.13,58.93 -131.28,97.71 l -0.01,-0.01 -0.02,0.02 c -2.39,3.03 -4.77,6.17 -7.11,9.4 -36.31,50.01 -42.82,94.24 -34.19,130.7 8.63,36.48 32.38,65.32 56.6,84.45 1.81,1.43 3.74,2.89 5.79,4.38 v 0.01 c 24,17.29 33.71,50.23 35.5,87.97 2.59,54.96 -11.58,120.28 -22.65,161.24 -4.24,19.54 3.99,38.93 20.58,56.93 19,20.62 48.83,39.35 83.58,54.49 14.88,5.74 30.68,13.01 46.9,20.47 37.43,17.22 77.14,35.48 112.21,37.89 v 0 c 68.05,2.92 80,-21.83 94.56,-51.95 10.87,-22.49 23.12,-47.84 58.88,-67.79 49.97,-27.83 61.91,-15.36 76.28,-0.35 9.44,9.86 20.06,20.95 46.55,19.59 1.2,-0.06 2.45,-0.17 3.73,-0.32 29.62,-3.44 56.43,-29.4 75.45,-63.43 19.21,-34.37 30.39,-76.82 28.54,-112.78 -0.15,-2.93 -0.39,-5.86 -0.73,-8.78 v 0 c -6.78,-42.14 4.89,-69.05 18.42,-100.26 11.51,-26.54 24.4,-56.27 28,-101.51 v 0 C 864.2,358.89 862.08,346.19 858,334.1 847.93,304.25 825.94,278.09 800.13,259.19 774.34,240.3 744.84,228.7 719.7,227.95 c -8.53,-0.26 -16.54,0.74 -23.7,3.14 l -0.13,0.05 c -31.49,10.72 -73.68,0.77 -111.83,-23.05 -36.19,-22.59 -68.89,-57.7 -85.41,-99.44 v 0 C 495.27,101.58 490.39,95.69 484.22,90.89 464.46,75.53 431.59,71.43 393.26,76.01 354.44,80.64 310.2,94.15 268.24,113.89 Z"
   stroke-linecap="round"
   id="path12" />&#10;</g>&#10;		<g
   transform="matrix(0.23400431,0,0,0.23400431,0.3654497,-0.89612043)"
   id="g13">&#10;<path
   style="opacity:1;fill:#ee1340;fill-rule:nonzero;stroke:none;stroke-width:1;stroke-linecap:butt;stroke-linejoin:miter;stroke-miterlimit:4;stroke-dasharray:none;stroke-dashoffset:0"
   paint-order="stroke"
   transform="translate(-477.26963,-468.87269)"
   d="m 107.67,192.26 c 36.81,-46.35 97.74,-86.34 161.09,-112.83 43.22,-18.08 87.62,-29.89 126.3,-33.18 39.14,-3.33 72.57,2.1 93.35,18.6 7.71,6.13 13.68,13.76 17.55,23.01 0.04,0.1 0.07,0.19 0.1,0.29 16.41,43.92 49.86,80.81 87.1,104.46 38.93,24.73 81.83,34.94 113.41,23.5 l 0.18,-0.06 c 8.45,-3.02 17.87,-4.34 27.87,-4.14 28.04,0.57 60.9,13.14 89.67,33.82 28.74,20.66 53.5,49.46 65.41,82.51 5.12,14.19 7.86,29.17 7.55,44.62 v 0.1 0 c -2.61,49.85 -16.36,81.71 -28.83,110.59 -13.24,30.69 -25,57.91 -19.68,99.96 l 0.01,0.1 c 0.43,4.39 0.67,8.9 0.72,13.51 0.44,39.43 -12.91,84.92 -34.72,121.34 -22.02,36.77 -52.76,64.44 -86.91,67.78 -2.02,0.2 -4.07,0.31 -6.16,0.33 -32.54,0.36 -45.29,-14.43 -56.53,-27.46 -13.46,-15.6 -24.48,-28.39 -72.87,-1.53 -36.56,20.32 -48,47.36 -58.25,71.63 -14.91,35.27 -27.46,64.96 -104.33,63.14 h -0.05 c -49.05,-1.96 -103.68,-27.48 -151.19,-49.68 -5.23,-2.44 -10.36,-4.84 -16.89,-7.85 l -0.17,-0.08 C 224.65,816.57 193.25,794.2 173.29,770.62 154.65,748.6 145.87,725.43 151.75,703.4 c 0.03,-0.1 0.06,-0.2 0.09,-0.29 12.48,-41.22 25.49,-107.98 21.16,-164.92 -2.99,-39.32 -14.26,-73.83 -39.75,-91.44 l -0.01,-0.01 v 0.01 c -3.76,-2.61 -7.57,-5.45 -11.39,-8.52 -26.66,-21.38 -51.63,-52.3 -60.84,-91.05 -9.22,-38.78 -2.66,-85.26 33.74,-137.67 3.92,-5.64 8.22,-11.39 12.92,-17.26 z M 271.29,85.5 c -62.42,26.1 -122.38,65.4 -158.47,110.85 v 0 l -0.01,0.01 c -4.54,5.66 -8.75,11.3 -12.65,16.91 -35.17,50.63 -41.56,95.29 -32.74,132.4 8.82,37.13 32.87,66.84 58.55,87.44 3.61,2.9 7.31,5.65 11.03,8.23 v 0.01 c 27.4,18.94 39.44,55.21 42.57,96.35 4.4,57.81 -8.78,125.51 -21.44,167.3 l -0.02,0.07 c -5.26,19.74 2.94,40.9 20.21,61.3 19.38,22.89 50.03,44.69 86.01,62.48 4.49,2.07 10.65,4.95 16.92,7.87 46.95,21.93 100.94,47.15 148.67,49.06 72.35,1.71 84.11,-26.1 98.07,-59.13 10.68,-25.26 22.58,-53.41 61.11,-74.82 53.06,-29.45 65.66,-14.85 81.03,2.97 10.31,11.95 22.01,25.52 51.51,25.2 1.85,-0.02 3.72,-0.12 5.59,-0.31 31.85,-3.12 60.86,-29.51 81.89,-64.62 21.23,-35.45 34.21,-79.65 33.79,-117.92 -0.05,-4.39 -0.28,-8.71 -0.69,-12.95 -5.52,-43.8 6.55,-71.76 20.15,-103.28 12.25,-28.38 25.77,-59.69 28.31,-108.32 0.28,-14.58 -2.32,-28.74 -7.17,-42.17 -11.43,-31.72 -35.31,-59.45 -63.07,-79.4 -27.72,-19.93 -59.22,-32.04 -85.96,-32.58 -9.23,-0.19 -17.87,1.01 -25.54,3.75 l -0.14,0.05 c -33.56,12.16 -78.62,1.65 -119.17,-24.12 -38.32,-24.34 -72.77,-62.36 -89.71,-107.7 l -0.04,-0.09 C 496.46,82.16 491.17,75.4 484.31,69.95 464.95,54.58 433.14,49.58 395.59,52.77 357.58,56 313.88,67.65 271.27,85.46 Z"
   stroke-linecap="round"
   id="path13" />&#10;</g>&#10;		<g
   transform="matrix(0.23400431,0,0,0.23400431,0.18535913,-0.45131735)"
   id="g14">&#10;<path
   style="opacity:1;fill:#f51038;fill-rule:nonzero;stroke:none;stroke-width:1;stroke-linecap:butt;stroke-linejoin:miter;stroke-miterlimit:4;stroke-dasharray:none;stroke-dashoffset:0"
   paint-order="stroke"
   transform="translate(-476.50003,-470.77352)"
   d="M 83.35,176.79 C 126.31,123.69 199.01,78.84 272.26,51.47 315.8,35.2 359.58,25.08 397.47,23.05 c 38.37,-2.06 70.86,4.18 91.29,20.71 8.42,6.82 14.8,15.37 18.69,25.8 l 0.02,0.06 h 0.01 c 0.53,1.5 1.1,3.05 1.71,4.65 17.98,47.1 53.97,86.23 93.66,110.71 39.43,24.32 82.39,34.11 114.67,22.73 0.54,-0.19 1.13,-0.41 1.78,-0.66 9.04,-3.44 19.21,-5 30.06,-4.88 29.68,0.35 64.58,13.45 95.31,35.17 30.71,21.71 57.38,52.08 70.68,87 5.93,15.56 9.2,32.05 9,49.09 v 0.05 c -1.46,53.41 -15.87,86.84 -29.12,117.61 -13.39,31.09 -25.59,59.39 -21.41,103.05 v 0.05 h 0.01 c 0.47,5.68 0.62,11.59 0.49,17.67 -0.94,41.74 -16.08,89.05 -39.92,126.63 -24.07,37.93 -57.09,66.11 -93.56,69.1 -2.64,0.22 -5.35,0.3 -8.15,0.23 -35.74,-0.8 -49.58,-18.22 -61.68,-33.45 -14.37,-18.09 -26.01,-32.75 -77.09,-4.49 -0.07,0.04 -0.15,0.08 -0.22,0.11 -38.84,21.59 -49.89,51.21 -59.89,78.04 -14.32,38.41 -26.62,71.39 -108.17,70.84 h -0.03 c -29.21,-0.43 -59.88,-7.52 -89.83,-18.01 -29.88,-10.46 -59.01,-24.28 -85.27,-38.23 -0.07,-0.04 -0.13,-0.07 -0.2,-0.11 -37.99,-20.85 -70.22,-46.3 -90.54,-72.18 -19.28,-24.56 -27.95,-49.65 -20.94,-71.9 0.02,-0.08 0.05,-0.15 0.08,-0.23 14.01,-41.99 26.14,-111.09 20.04,-170.85 -4.35,-42.57 -17.94,-80.27 -46.78,-99.53 -5.66,-3.79 -11.31,-7.94 -16.86,-12.45 C 67.3,412.62 41.97,380.77 32.54,341.22 23.11,301.65 29.59,254.51 65.23,201.27 70.6,193.25 76.63,185.09 83.37,176.8 l -0.01,-0.01 z M 274.64,57.86 C 202.44,84.84 130.86,128.95 88.67,181.1 l -0.01,-0.01 v 0.01 c -6.61,8.13 -12.52,16.12 -17.77,23.97 -34.41,51.41 -40.73,96.7 -31.7,134.58 9.03,37.9 33.43,68.51 60.42,90.44 5.38,4.37 10.87,8.4 16.35,12.07 30.79,20.56 45.23,60.08 49.77,104.52 6.2,60.77 -6.12,130.99 -20.35,173.66 l -0.03,0.12 c -6.27,19.89 1.89,42.84 19.79,65.65 19.76,25.17 51.26,50 88.47,70.42 l 0.1,0.05 c 26.06,13.84 54.9,27.53 84.31,37.83 29.34,10.28 59.29,17.22 87.67,17.63 76.77,0.52 88.3,-30.4 101.73,-66.4 10.42,-27.94 21.92,-58.77 62.94,-81.59 0.09,-0.06 0.18,-0.12 0.27,-0.17 56.12,-31.05 69.37,-14.37 85.73,6.22 11.17,14.07 23.95,30.16 56.46,30.89 2.44,0.05 4.94,-0.03 7.48,-0.23 34.1,-2.8 65.32,-29.69 88.32,-65.94 23.22,-36.6 37.97,-82.59 38.88,-123.1 0.13,-5.74 -0.03,-11.42 -0.49,-17 h 0.01 c -4.33,-45.4 8.18,-74.44 21.92,-106.34 13.02,-30.21 27.16,-63.05 28.59,-115.1 0.18,-16.1 -2.93,-31.72 -8.57,-46.53 -12.79,-33.59 -38.54,-62.86 -68.22,-83.85 -29.66,-20.97 -63.15,-33.61 -91.46,-33.94 -9.97,-0.12 -19.29,1.31 -27.55,4.45 -0.58,0.22 -1.23,0.46 -1.94,0.71 -34.28,12.08 -79.4,1.98 -120.52,-23.38 -40.87,-25.2 -77.93,-65.52 -96.46,-114.08 -0.59,-1.54 -1.17,-3.14 -1.76,-4.81 h 0.01 c -3.44,-9.18 -9.1,-16.74 -16.59,-22.8 -19.03,-15.4 -49.9,-21.18 -86.64,-19.21 -37.21,2 -80.28,11.96 -123.18,27.99 z"
   stroke-linecap="round"
   id="path14" />&#10;</g>&#10;		<g
   transform="scale(0.23400431)"
   id="g15">&#10;<path
   style="opacity:1;fill:#fc0d31;fill-rule:nonzero;stroke:none;stroke-width:1;stroke-linecap:butt;stroke-linejoin:miter;stroke-miterlimit:4;stroke-dasharray:none;stroke-dashoffset:0"
   paint-order="stroke"
   transform="translate(-475.70791,-472.70219)"
   d="M 59.04,161.34 C 108.22,101.51 192.93,52.02 275.69,24.26 319.32,9.63 362.47,1.01 399.65,0.08 c 37.64,-0.94 69.31,6.01 89.47,22.58 9.16,7.53 15.93,17 19.81,28.58 1.24,3.69 2.57,7.31 3.98,10.85 19.34,48.47 56.35,88.54 97.05,113.64 40.43,24.93 84.37,35.03 117.94,23.77 1.42,-0.48 2.79,-0.98 4.11,-1.5 9.62,-3.84 20.47,-5.63 32.05,-5.58 31.32,0.14 68.25,13.76 100.95,36.53 32.66,22.74 61.22,54.67 75.9,91.47 6.77,16.96 10.59,34.96 10.51,53.57 -0.25,56.95 -15.31,91.91 -29.4,124.6 -13.59,31.54 -26.25,60.92 -23.17,106.19 0.48,7.02 0.52,14.28 0.14,21.7 -2.24,43.99 -19.14,93.16 -45,131.96 -26.1,39.16 -61.41,67.9 -100.21,70.54 -3.34,0.23 -6.72,0.26 -10.15,0.09 -38.93,-1.98 -53.84,-22.05 -66.8,-39.49 -15.28,-20.56 -27.54,-37.07 -81.32,-7.4 -41.44,22.86 -52.13,55.14 -61.9,84.63 -13.77,41.58 -25.8,77.9 -112.13,78.59 -29.56,0.24 -60.13,-4.92 -89.91,-13.92 -32.36,-9.78 -63.87,-24.13 -92.17,-41.06 -39.35,-23.53 -72.53,-52.09 -93.25,-80.34 -19.9,-27.13 -28.44,-54.16 -20.28,-76.61 15.54,-42.79 26.92,-114.4 19.06,-177.1 C 139.19,510.62 123.2,469.78 91.05,448.92 83.52,444.04 76.01,438.58 68.7,432.58 39.45,408.54 13.71,375.73 4.05,335.28 -5.61,294.81 0.83,246.86 35.98,192.67 42.61,182.46 50.26,172.01 59.03,161.34 Z M 277.93,30.97 C 196.28,58.36 112.81,107.06 64.49,165.83 55.9,176.27 48.4,186.51 41.91,196.52 7.96,248.86 1.67,294.92 10.92,333.64 c 9.25,38.74 34.06,70.29 62.27,93.48 7.08,5.82 14.38,11.11 21.71,15.87 34.18,22.17 51.09,64.88 57.07,112.52 8,63.8 -3.61,136.75 -19.45,180.37 -7.27,20.02 0.82,44.77 19.34,70.02 20.19,27.52 52.62,55.4 91.18,78.46 27.79,16.62 58.75,30.71 90.59,40.33 29.19,8.82 59.05,13.87 87.81,13.64 81.24,-0.65 92.53,-34.73 105.45,-73.74 10.18,-30.75 21.33,-64.4 65.23,-88.62 59.18,-32.64 73.09,-13.92 90.41,9.4 12.03,16.19 25.88,34.83 61.45,36.64 3.12,0.16 6.23,0.13 9.34,-0.09 36.38,-2.48 69.82,-29.94 94.78,-67.39 25.2,-37.8 41.66,-85.64 43.83,-128.39 0.36,-7.12 0.32,-14.11 -0.14,-20.9 -3.2,-46.98 9.78,-77.11 23.72,-109.46 13.82,-32.07 28.6,-66.37 28.84,-121.82 0.08,-17.67 -3.56,-34.78 -10.01,-50.94 -14.13,-35.41 -41.75,-66.23 -73.38,-88.25 -31.59,-21.99 -67.04,-35.15 -96.93,-35.28 -10.7,-0.05 -20.65,1.58 -29.42,5.08 -1.5,0.6 -2.99,1.15 -4.47,1.64 -35.62,11.95 -81.75,1.53 -123.9,-24.46 C 564.36,155.93 526.27,114.66 506.33,64.7 504.85,60.98 503.47,57.24 502.21,53.49 498.77,43.22 492.75,34.81 484.61,28.13 465.85,12.71 435.8,6.25 399.8,7.15 363.34,8.06 320.91,16.55 277.92,30.97 Z"
   stroke-linecap="round"
   id="path15" />&#10;</g>&#10;</g>&#10;</g>&#10;<g
   transform="matrix(0.12192069,-1.9172813,1.9172813,0.12192069,306.99503,489.29544)"
   id="text-logo-0"
   inkscape:label="F^">&#10;<g
   paint-order="stroke"
   id="g17">&#10;		<g
   id="text-logo-0-path-0">&#10;<path
   style="opacity:1;fill:#ef1945;fill-rule:nonzero;stroke:none;stroke-width:0;stroke-linecap:butt;stroke-linejoin:miter;stroke-miterlimit:4;stroke-dasharray:none;stroke-dashoffset:0"
   paint-order="stroke"
   transform="translate(-11.02,11.055)"
   d="m 18.56,-22.11 v 1.54 H 5.16 v 8.54 h 10.62 v 1.58 H 5.16 V 0 H 3.48 v -22.11 z"
   stroke-linecap="round"
   id="path16" />&#10;</g>&#10;</g>&#10;</g>&#10;<g
   transform="matrix(0.38476476,-1.8822296,1.8822296,0.38476476,313.2488,446.03971)"
   id="text-logo-1"
   inkscape:label="U^">&#10;<g
   paint-order="stroke"
   id="g18">&#10;		<g
   id="text-logo-1-path-0">&#10;<path
   style="opacity:1;fill:#ef1945;fill-rule:nonzero;stroke:none;stroke-width:0;stroke-linecap:butt;stroke-linejoin:miter;stroke-miterlimit:4;stroke-dasharray:none;stroke-dashoffset:0"
   paint-order="stroke"
   transform="translate(-11.51,10.885)"
   d="m 18.36,-22.11 h 1.68 v 14.04 q 0,4.12 -2.23,6.26 -2.23,2.15 -6.28,2.15 v 0 q -4.06,0 -6.3,-2.15 -2.25,-2.14 -2.25,-6.26 v 0 -14.04 h 1.68 v 13.7 q 0,3.55 1.74,5.38 1.74,1.82 5.13,1.82 v 0 q 3.35,0 5.09,-1.82 1.74,-1.83 1.74,-5.38 v 0 z"
   stroke-linecap="round"
   id="path17" />&#10;</g>&#10;</g>&#10;</g>&#10;<g
   transform="matrix(0.64715587,-1.808873,1.808873,0.64715587,325.56438,400.69229)"
   id="text-logo-2"
   inkscape:label="S^">&#10;<g
   paint-order="stroke"
   id="g19">&#10;		<g
   id="text-logo-2-path-0">&#10;<path
   style="opacity:1;fill:#ef1945;fill-rule:nonzero;stroke:none;stroke-width:0;stroke-linecap:butt;stroke-linejoin:miter;stroke-miterlimit:4;stroke-dasharray:none;stroke-dashoffset:0"
   paint-order="stroke"
   transform="translate(-10.2,11.055)"
   d="m 10.32,-22.45 v 0 q 6.13,0 8.34,4.89 v 0 l -1.4,1.08 q -0.98,-2.35 -2.74,-3.39 -1.75,-1.04 -4.33,-1.04 v 0 q -2.99,0 -4.56,1.33 -1.58,1.32 -1.58,3.23 v 0 q 0,1.54 0.99,2.55 0.99,1 3.7,1.6 v 0 l 4.33,0.94 q 3.21,0.71 4.55,2.03 1.34,1.32 1.34,3.4 v 0 q 0,1.81 -1.03,3.2 -1.04,1.39 -2.9,2.18 -1.86,0.79 -4.34,0.79 v 0 q -3.55,0 -5.95,-1.43 -2.39,-1.42 -3.3,-3.94 v 0 l 1.47,-1.14 q 0.71,2.38 2.77,3.67 2.06,1.29 5.08,1.29 v 0 q 2.81,0 4.64,-1.15 1.82,-1.16 1.82,-3.37 v 0 q 0,-1.37 -1,-2.34 -1.01,-0.98 -3.49,-1.51 v 0 l -4.55,-1.01 q -3.19,-0.7 -4.54,-2.09 -1.36,-1.39 -1.36,-3.47 v 0 q 0,-1.71 0.97,-3.13 0.97,-1.43 2.76,-2.3 1.8,-0.87 4.31,-0.87 z"
   stroke-linecap="round"
   id="path18" />&#10;</g>&#10;</g>&#10;</g>&#10;<g
   transform="matrix(0.81626993,-1.7391192,1.7391192,0.81626993,337.81415,370.95344)"
   id="text-logo-3"
   inkscape:label="I^">&#10;<g
   paint-order="stroke"
   id="g20">&#10;		<g
   id="text-logo-3-path-0">&#10;<path
   style="opacity:1;fill:#ef1945;fill-rule:nonzero;stroke:none;stroke-width:0;stroke-linecap:butt;stroke-linejoin:miter;stroke-miterlimit:4;stroke-dasharray:none;stroke-dashoffset:0"
   paint-order="stroke"
   transform="translate(-4.32,11.055)"
   d="M 3.48,-22.11 H 5.16 V 0 H 3.48 Z"
   stroke-linecap="round"
   id="path19" />&#10;</g>&#10;</g>&#10;</g>&#10;<g
   transform="matrix(0.99810386,-1.64153,1.64153,0.99810386,354.75989,339.38366)"
   id="text-logo-4"
   inkscape:label="O^">&#10;<g
   paint-order="stroke"
   id="g21">&#10;		<g
   id="text-logo-4-path-0">&#10;<path
   style="opacity:1;fill:#ef1945;fill-rule:nonzero;stroke:none;stroke-width:0;stroke-linecap:butt;stroke-linejoin:miter;stroke-miterlimit:4;stroke-dasharray:none;stroke-dashoffset:0"
   paint-order="stroke"
   transform="translate(-12.265,11.055)"
   d="m 12.26,-22.45 v 0 q 3.12,0 5.41,1.39 2.3,1.39 3.54,3.94 1.24,2.55 1.24,6.06 v 0 q 0,3.52 -1.24,6.07 -1.24,2.54 -3.54,3.93 -2.29,1.4 -5.41,1.4 v 0 Q 9.15,0.34 6.85,-1.06 4.56,-2.45 3.32,-4.99 2.08,-7.54 2.08,-11.06 v 0 q 0,-3.51 1.24,-6.06 1.24,-2.55 3.53,-3.94 2.3,-1.39 5.41,-1.39 z m 0,1.54 v 0 q -2.58,0 -4.47,1.19 -1.89,1.19 -2.91,3.4 -1.03,2.21 -1.03,5.26 v 0 q 0,3.05 1.03,5.26 1.02,2.21 2.91,3.4 1.89,1.19 4.47,1.19 v 0 q 2.58,0 4.48,-1.19 1.89,-1.19 2.93,-3.4 1.04,-2.21 1.04,-5.26 v 0 q 0,-3.05 -1.04,-5.26 -1.04,-2.21 -2.93,-3.4 -1.9,-1.19 -4.48,-1.19 z"
   stroke-linecap="round"
   id="path20" />&#10;</g>&#10;</g>&#10;</g>&#10;<g
   transform="matrix(1.2426869,-1.4651148,1.4651148,1.2426869,385.42695,296.86489)"
   id="text-logo-5"
   inkscape:label="N^">&#10;<g
   paint-order="stroke"
   id="g22">&#10;		<g
   id="text-logo-5-path-0">&#10;<path
   style="opacity:1;fill:#ef1945;fill-rule:nonzero;stroke:none;stroke-width:0;stroke-linecap:butt;stroke-linejoin:miter;stroke-miterlimit:4;stroke-dasharray:none;stroke-dashoffset:0"
   paint-order="stroke"
   transform="translate(-11.975,11.055)"
   d="m 18.9,-22.11 h 1.57 V 0 H 18.39 L 6.67,-17.36 5.03,-20.2 H 4.99 l 0.1,2.68 V 0 H 3.48 V -22.11 H 5.6 l 11.69,17.32 1.67,2.88 v 0 L 18.9,-4.59 Z"
   stroke-linecap="round"
   id="path21" />&#10;</g>&#10;</g>&#10;</g>&#10;&#10;<g
   transform="matrix(1.521505,-1.1729683,1.1729683,1.521505,437.56374,247.43846)"
   id="text-logo-7"
   inkscape:label="&amp;^">&#10;<g
   paint-order="stroke"
   id="g24">&#10;		<g
   id="text-logo-7-path-0">&#10;<path
   style="opacity:1;fill:#ef1945;fill-rule:nonzero;stroke:none;stroke-width:0;stroke-linecap:butt;stroke-linejoin:miter;stroke-miterlimit:4;stroke-dasharray:none;stroke-dashoffset:0"
   paint-order="stroke"
   transform="translate(-10.92,11.02)"
   d="m 8.28,0.34 v 0 Q 5.26,0.34 3.42,-1.17 1.57,-2.68 1.57,-5.16 v 0 q 0,-2.31 1.34,-3.92 1.35,-1.61 4.16,-3.05 v 0 q -1.01,-1.31 -1.58,-2.23 -0.56,-0.92 -0.8,-1.69 -0.23,-0.77 -0.23,-1.64 v 0 q 0,-1.91 1.29,-3.3 1.29,-1.39 3.83,-1.39 v 0 q 2.08,0 3.37,1.14 1.29,1.14 1.29,3.08 v 0 q 0,2.11 -1.22,3.55 -1.23,1.44 -3.81,2.88 v 0 q 0.51,0.64 1.09,1.39 0.59,0.76 1.29,1.66 v 0 q 0.97,1.28 1.78,2.28 0.8,1.01 1.47,1.78 v 0 q 1.85,-3.02 1.68,-7.41 v 0 l 1.47,0.1 q 0.07,2.21 -0.47,4.41 -0.53,2.19 -1.74,3.93 v 0 q 1.48,1.61 2.43,2.13 0.96,0.52 2.06,0.52 v 0 l -0.4,1.28 q -1.21,0 -2.3,-0.56 -1.09,-0.55 -2.66,-2.26 v 0 Q 13.74,-1.17 12.1,-0.42 10.45,0.34 8.28,0.34 Z M 6.03,-17.69 v 0 q 0,0.67 0.17,1.27 0.17,0.61 0.67,1.43 0.5,0.82 1.54,2.19 v 0 q 2.01,-1.17 3.18,-2.26 1.18,-1.09 1.18,-2.93 v 0 q 0,-1.38 -0.89,-2.16 -0.89,-0.79 -2.4,-0.79 v 0 q -1.64,0 -2.54,0.92 -0.91,0.92 -0.91,2.33 z m -2.88,12.4 v 0 q 0,2.01 1.51,3.13 1.51,1.12 3.72,1.12 v 0 q 1.84,0 3.2,-0.64 1.35,-0.63 2.39,-1.8 v 0 q -0.74,-0.84 -1.59,-1.9 -0.85,-1.05 -1.89,-2.36 v 0 q -0.77,-1 -1.43,-1.83 -0.65,-0.82 -1.22,-1.52 v 0 q -2.35,1.27 -3.52,2.51 -1.17,1.24 -1.17,3.29 z"
   stroke-linecap="round"
   id="path23" />&#10;</g>&#10;</g>&#10;</g>&#10;&#10;<g
   transform="matrix(1.7214518,-0.85289849,0.85289849,1.7214518,493.65371,212.75324)"
   id="text-logo-9"
   inkscape:label="P^">&#10;<g
   paint-order="stroke"
   id="g26">&#10;		<g
   id="text-logo-9-path-0">&#10;<path
   style="opacity:1;fill:#ef1945;fill-rule:nonzero;stroke:none;stroke-width:0;stroke-linecap:butt;stroke-linejoin:miter;stroke-miterlimit:4;stroke-dasharray:none;stroke-dashoffset:0"
   paint-order="stroke"
   transform="translate(-10.905,11.055)"
   d="m 3.48,-22.11 h 7.34 q 3.45,0 5.48,1.72 2.03,1.73 2.03,4.74 v 0 q 0,3.05 -2.03,4.78 -2.03,1.72 -5.48,1.72 v 0 H 5.16 V 0 H 3.48 Z m 1.68,11.39 h 5.46 q 2.92,0 4.42,-1.28 1.51,-1.27 1.51,-3.65 v 0 q 0,-2.34 -1.51,-3.63 -1.5,-1.29 -4.42,-1.29 v 0 H 5.16 Z"
   stroke-linecap="round"
   id="path25" />&#10;</g>&#10;</g>&#10;</g>&#10;<g
   transform="matrix(1.8176566,-0.62205842,0.62205842,1.8176566,533.84345,196.28865)"
   id="text-logo-10"
   inkscape:label="E^">&#10;<g
   paint-order="stroke"
   id="g27">&#10;		<g
   id="text-logo-10-path-0">&#10;<path
   style="opacity:1;fill:#ef1945;fill-rule:nonzero;stroke:none;stroke-width:0;stroke-linecap:butt;stroke-linejoin:miter;stroke-miterlimit:4;stroke-dasharray:none;stroke-dashoffset:0"
   paint-order="stroke"
   transform="translate(-11.305,11.055)"
   d="M 19.13,0 H 3.48 V -22.11 H 18.6 v 1.54 H 5.16 v 8.54 h 10.62 v 1.58 H 5.16 v 8.91 h 13.97 z"
   stroke-linecap="round"
   id="path26" />&#10;</g>&#10;</g>&#10;</g>&#10;<g
   transform="matrix(1.8851995,-0.36993935,0.36993935,1.8851995,577.7751,184.80404)"
   id="text-logo-11"
   inkscape:label="R^">&#10;<g
   paint-order="stroke"
   id="g28">&#10;		<g
   id="text-logo-11-path-0">&#10;<path
   style="opacity:1;fill:#ef1945;fill-rule:nonzero;stroke:none;stroke-width:0;stroke-linecap:butt;stroke-linejoin:miter;stroke-miterlimit:4;stroke-dasharray:none;stroke-dashoffset:0"
   paint-order="stroke"
   transform="translate(-11.79,11.055)"
   d="m 3.48,-22.11 h 8.21 q 3.29,0 5.26,1.67 1.98,1.68 1.98,4.59 v 0 q 0,2.45 -1.42,4.01 -1.43,1.55 -3.87,1.99 v 0 L 20.1,0 h -1.97 l -6.4,-9.68 h -0.07 l -0.17,0.1 H 5.16 V 0 H 3.48 Z m 1.68,10.95 h 6.5 q 2.68,0 4.1,-1.2 1.43,-1.21 1.43,-3.49 v 0 q 0,-2.28 -1.43,-3.5 -1.42,-1.22 -4.1,-1.22 v 0 h -6.5 z"
   stroke-linecap="round"
   id="path27" />&#10;</g>&#10;</g>&#10;</g>&#10;<g
   transform="matrix(1.9185464,-0.10005947,0.10005947,1.9185464,623.23614,179.37811)"
   id="text-logo-12"
   inkscape:label="C^">&#10;<g
   paint-order="stroke"
   id="g29">&#10;		<g
   id="text-logo-12-path-0">&#10;<path
   style="opacity:1;fill:#ef1945;fill-rule:nonzero;stroke:none;stroke-width:0;stroke-linecap:butt;stroke-linejoin:miter;stroke-miterlimit:4;stroke-dasharray:none;stroke-dashoffset:0"
   paint-order="stroke"
   transform="translate(-11.525,11.055)"
   d="m 19.3,-6.23 1.67,0.63 q -0.93,2.82 -3.28,4.38 -2.34,1.56 -5.56,1.56 v 0 Q 9.08,0.34 6.84,-1.06 4.59,-2.45 3.33,-4.99 2.08,-7.54 2.08,-11.06 v 0 q 0,-3.51 1.25,-6.06 1.26,-2.55 3.51,-3.94 2.24,-1.39 5.26,-1.39 v 0 q 6.66,0 8.57,5.46 v 0 l -1.64,0.77 q -0.77,-2.31 -2.44,-3.5 -1.68,-1.19 -4.39,-1.19 v 0 q -2.48,0 -4.38,1.19 -1.89,1.19 -2.93,3.4 -1.04,2.21 -1.04,5.26 v 0 q 0,3.05 1.03,5.26 1.02,2.21 2.88,3.4 1.86,1.19 4.37,1.19 v 0 q 2.68,0 4.56,-1.29 1.87,-1.29 2.61,-3.73 z"
   stroke-linecap="round"
   id="path28" />&#10;</g>&#10;</g>&#10;</g>&#10;<g
   transform="matrix(1.9138685,0.16715104,-0.16715104,1.9138685,671.09917,180.39513)"
   id="text-logo-13"
   inkscape:label="E^^">&#10;<g
   paint-order="stroke"
   id="g30">&#10;		<g
   id="text-logo-13-path-0">&#10;<path
   style="opacity:1;fill:#ef1945;fill-rule:nonzero;stroke:none;stroke-width:0;stroke-linecap:butt;stroke-linejoin:miter;stroke-miterlimit:4;stroke-dasharray:none;stroke-dashoffset:0"
   paint-order="stroke"
   transform="translate(-11.305,11.055)"
   d="M 19.13,0 H 3.48 V -22.11 H 18.6 v 1.54 H 5.16 v 8.54 h 10.62 v 1.58 H 5.16 v 8.91 h 13.97 z"
   stroke-linecap="round"
   id="path29" />&#10;</g>&#10;</g>&#10;</g>&#10;<g
   transform="matrix(1.8759403,0.41434317,-0.41434317,1.8759403,714.04677,187.25249)"
   id="text-logo-14"
   inkscape:label="P^^">&#10;<g
   paint-order="stroke"
   id="g31">&#10;		<g
   id="text-logo-14-path-0">&#10;<path
   style="opacity:1;fill:#ef1945;fill-rule:nonzero;stroke:none;stroke-width:0;stroke-linecap:butt;stroke-linejoin:miter;stroke-miterlimit:4;stroke-dasharray:none;stroke-dashoffset:0"
   paint-order="stroke"
   transform="translate(-10.905,11.055)"
   d="m 3.48,-22.11 h 7.34 q 3.45,0 5.48,1.72 2.03,1.73 2.03,4.74 v 0 q 0,3.05 -2.03,4.78 -2.03,1.72 -5.48,1.72 v 0 H 5.16 V 0 H 3.48 Z m 1.68,11.39 h 5.46 q 2.92,0 4.42,-1.28 1.51,-1.27 1.51,-3.65 v 0 q 0,-2.34 -1.51,-3.63 -1.5,-1.29 -4.42,-1.29 v 0 H 5.16 Z"
   stroke-linecap="round"
   id="path30" />&#10;</g>&#10;</g>&#10;</g>&#10;<g
   transform="matrix(1.808873,0.64715587,-0.64715587,1.808873,752.54426,198.47646)"
   id="text-logo-15"
   inkscape:label="T^">&#10;<g
   paint-order="stroke"
   id="g32">&#10;		<g
   id="text-logo-15-path-0">&#10;<path
   style="opacity:1;fill:#ef1945;fill-rule:nonzero;stroke:none;stroke-width:0;stroke-linecap:butt;stroke-linejoin:miter;stroke-miterlimit:4;stroke-dasharray:none;stroke-dashoffset:0"
   paint-order="stroke"
   transform="translate(-9.65,11.055)"
   d="m 0.74,-22.11 h 17.82 v 1.54 H 10.49 V 0 H 8.81 V -20.57 H 0.74 Z"
   stroke-linecap="round"
   id="path31" />&#10;</g>&#10;</g>&#10;</g>&#10;<g
   transform="matrix(1.7430859,0.80776464,-0.80776464,1.7430859,780.43969,209.90828)"
   id="text-logo-16"
   inkscape:label="I^^">&#10;<g
   paint-order="stroke"
   id="g33">&#10;		<g
   id="text-logo-16-path-0">&#10;<path
   style="opacity:1;fill:#ef1945;fill-rule:nonzero;stroke:none;stroke-width:0;stroke-linecap:butt;stroke-linejoin:miter;stroke-miterlimit:4;stroke-dasharray:none;stroke-dashoffset:0"
   paint-order="stroke"
   transform="translate(-4.32,11.055)"
   d="M 3.48,-22.11 H 5.16 V 0 H 3.48 Z"
   stroke-linecap="round"
   id="path32" />&#10;</g>&#10;</g>&#10;</g>&#10;<g
   transform="matrix(1.6463861,0.99007312,-0.99007312,1.6463861,812.0926,226.69671)"
   id="text-logo-17"
   inkscape:label="O^^">&#10;<g
   paint-order="stroke"
   id="g34">&#10;		<g
   id="text-logo-17-path-0">&#10;<path
   style="opacity:1;fill:#ef1945;fill-rule:nonzero;stroke:none;stroke-width:0;stroke-linecap:butt;stroke-linejoin:miter;stroke-miterlimit:4;stroke-dasharray:none;stroke-dashoffset:0"
   paint-order="stroke"
   transform="translate(-12.265,11.055)"
   d="m 12.26,-22.45 v 0 q 3.12,0 5.41,1.39 2.3,1.39 3.54,3.94 1.24,2.55 1.24,6.06 v 0 q 0,3.52 -1.24,6.07 -1.24,2.54 -3.54,3.93 -2.29,1.4 -5.41,1.4 v 0 Q 9.15,0.34 6.85,-1.06 4.56,-2.45 3.32,-4.99 2.08,-7.54 2.08,-11.06 v 0 q 0,-3.51 1.24,-6.06 1.24,-2.55 3.53,-3.94 2.3,-1.39 5.41,-1.39 z m 0,1.54 v 0 q -2.58,0 -4.47,1.19 -1.89,1.19 -2.91,3.4 -1.03,2.21 -1.03,5.26 v 0 q 0,3.05 1.03,5.26 1.02,2.21 2.91,3.4 1.89,1.19 4.47,1.19 v 0 q 2.58,0 4.48,-1.19 1.89,-1.19 2.93,-3.4 1.04,-2.21 1.04,-5.26 v 0 q 0,-3.05 -1.04,-5.26 -1.04,-2.21 -2.93,-3.4 -1.9,-1.19 -4.48,-1.19 z"
   stroke-linecap="round"
   id="path33" />&#10;</g>&#10;</g>&#10;</g>&#10;<g
   transform="matrix(1.4711678,1.2355151,-1.2355151,1.4711678,854.76223,257.15732)"
   id="text-logo-18"
   inkscape:label="N^^">&#10;<g
   paint-order="stroke"
   id="g35">&#10;		<g
   id="text-logo-18-path-0">&#10;<path
   style="opacity:1;fill:#ef1945;fill-rule:nonzero;stroke:none;stroke-width:0;stroke-linecap:butt;stroke-linejoin:miter;stroke-miterlimit:4;stroke-dasharray:none;stroke-dashoffset:0"
   paint-order="stroke"
   transform="translate(-11.975,11.055)"
   d="m 18.9,-22.11 h 1.57 V 0 H 18.39 L 6.67,-17.36 5.03,-20.2 H 4.99 l 0.1,2.68 V 0 H 3.48 V -22.11 H 5.6 l 11.69,17.32 1.67,2.88 v 0 L 18.9,-4.59 Z"
   stroke-linecap="round"
   id="path34" />&#10;</g>&#10;</g>&#10;</g>&#10;&#10;<g
   transform="matrix(1.1634484,1.5287969,-1.5287969,1.1634484,905.5073,310.33893)"
   id="text-logo-20"
   inkscape:label="G^">&#10;<g
   paint-order="stroke"
   id="g37">&#10;		<g
   id="text-logo-20-path-0">&#10;<path
   style="opacity:1;fill:#ef1945;fill-rule:nonzero;stroke:none;stroke-width:0;stroke-linecap:butt;stroke-linejoin:miter;stroke-miterlimit:4;stroke-dasharray:none;stroke-dashoffset:0"
   paint-order="stroke"
   transform="translate(-11.58,11.055)"
   d="m 12.23,0.34 v 0 Q 9.11,0.34 6.84,-1.06 4.56,-2.45 3.32,-4.99 2.08,-7.54 2.08,-11.06 v 0 q 0,-3.51 1.29,-6.06 1.29,-2.55 3.58,-3.94 2.3,-1.39 5.31,-1.39 v 0 q 3.39,0 5.48,1.34 2.1,1.34 3.17,4.09 v 0 l -1.54,0.8 q -1.54,-4.69 -7.11,-4.69 v 0 q -2.48,0 -4.39,1.19 -1.91,1.19 -2.96,3.4 -1.06,2.21 -1.06,5.26 v 0 q 0,4.56 2.21,7.21 2.22,2.64 6.24,2.64 v 0 q 2.44,0 4.05,-1 1.61,-1.01 2.38,-2.56 0.77,-1.56 0.77,-3.24 v 0 -1.24 H 12 v -1.57 h 9.08 V 0 H 19.7 l -0.07,-3.95 q -0.9,2.01 -2.79,3.15 -1.9,1.14 -4.61,1.14 z"
   stroke-linecap="round"
   id="path36" />&#10;</g>&#10;</g>&#10;</g>&#10;<g
   transform="matrix(0.92910283,1.6815469,-1.6815469,0.92910283,933.27426,353.16173)"
   id="text-logo-21"
   inkscape:label="R^^">&#10;<g
   paint-order="stroke"
   id="g38">&#10;		<g
   id="text-logo-21-path-0">&#10;<path
   style="opacity:1;fill:#ef1945;fill-rule:nonzero;stroke:none;stroke-width:0;stroke-linecap:butt;stroke-linejoin:miter;stroke-miterlimit:4;stroke-dasharray:none;stroke-dashoffset:0"
   paint-order="stroke"
   transform="translate(-11.79,11.055)"
   d="m 3.48,-22.11 h 8.21 q 3.29,0 5.26,1.67 1.98,1.68 1.98,4.59 v 0 q 0,2.45 -1.42,4.01 -1.43,1.55 -3.87,1.99 v 0 L 20.1,0 h -1.97 l -6.4,-9.68 h -0.07 l -0.17,0.1 H 5.16 V 0 H 3.48 Z m 1.68,10.95 h 6.5 q 2.68,0 4.1,-1.2 1.43,-1.21 1.43,-3.49 v 0 q 0,-2.28 -1.43,-3.5 -1.42,-1.22 -4.1,-1.22 v 0 h -6.5 z"
   stroke-linecap="round"
   id="path37" />&#10;</g>&#10;</g>&#10;</g>&#10;<g
   transform="matrix(0.67017524,1.8004714,-1.8004714,0.67017524,952.93851,396.3439)"
   id="text-logo-22"
   inkscape:label="O^^^">&#10;<g
   paint-order="stroke"
   id="g39">&#10;		<g
   id="text-logo-22-path-0">&#10;<path
   style="opacity:1;fill:#ef1945;fill-rule:nonzero;stroke:none;stroke-width:0;stroke-linecap:butt;stroke-linejoin:miter;stroke-miterlimit:4;stroke-dasharray:none;stroke-dashoffset:0"
   paint-order="stroke"
   transform="translate(-12.265,11.055)"
   d="m 12.26,-22.45 v 0 q 3.12,0 5.41,1.39 2.3,1.39 3.54,3.94 1.24,2.55 1.24,6.06 v 0 q 0,3.52 -1.24,6.07 -1.24,2.54 -3.54,3.93 -2.29,1.4 -5.41,1.4 v 0 Q 9.15,0.34 6.85,-1.06 4.56,-2.45 3.32,-4.99 2.08,-7.54 2.08,-11.06 v 0 q 0,-3.51 1.24,-6.06 1.24,-2.55 3.53,-3.94 2.3,-1.39 5.41,-1.39 z m 0,1.54 v 0 q -2.58,0 -4.47,1.19 -1.89,1.19 -2.91,3.4 -1.03,2.21 -1.03,5.26 v 0 q 0,3.05 1.03,5.26 1.02,2.21 2.91,3.4 1.89,1.19 4.47,1.19 v 0 q 2.58,0 4.48,-1.19 1.89,-1.19 2.93,-3.4 1.04,-2.21 1.04,-5.26 v 0 q 0,-3.05 -1.04,-5.26 -1.04,-2.21 -2.93,-3.4 -1.9,-1.19 -4.48,-1.19 z"
   stroke-linecap="round"
   id="path38" />&#10;</g>&#10;</g>&#10;</g>&#10;<g
   transform="matrix(0.38578634,1.8820205,-1.8820205,0.38578634,966.79894,445.83106)"
   id="text-logo-23"
   inkscape:label="U^^">&#10;<g
   paint-order="stroke"
   id="g40">&#10;		<g
   id="text-logo-23-path-0">&#10;<path
   style="opacity:1;fill:#ef1945;fill-rule:nonzero;stroke:none;stroke-width:0;stroke-linecap:butt;stroke-linejoin:miter;stroke-miterlimit:4;stroke-dasharray:none;stroke-dashoffset:0"
   paint-order="stroke"
   transform="translate(-11.51,10.885)"
   d="m 18.36,-22.11 h 1.68 v 14.04 q 0,4.12 -2.23,6.26 -2.23,2.15 -6.28,2.15 v 0 q -4.06,0 -6.3,-2.15 -2.25,-2.14 -2.25,-6.26 v 0 -14.04 h 1.68 v 13.7 q 0,3.55 1.74,5.38 1.74,1.82 5.13,1.82 v 0 q 3.35,0 5.09,-1.82 1.74,-1.83 1.74,-5.38 v 0 z"
   stroke-linecap="round"
   id="path39" />&#10;</g>&#10;</g>&#10;</g>&#10;<g
   transform="matrix(0.12244101,1.9172481,-1.9172481,0.12244101,973.37127,493.58899)"
   id="text-logo-24"
   inkscape:label="p^^^">&#10;<g
   paint-order="stroke"
   id="g41">&#10;		<g
   id="text-logo-24-path-0">&#10;<path
   style="opacity:1;fill:#ef1945;fill-rule:nonzero;stroke:none;stroke-width:0;stroke-linecap:butt;stroke-linejoin:miter;stroke-miterlimit:4;stroke-dasharray:none;stroke-dashoffset:0"
   paint-order="stroke"
   transform="translate(-10.905,11.055)"
   d="m 3.48,-22.11 h 7.34 q 3.45,0 5.48,1.72 2.03,1.73 2.03,4.74 v 0 q 0,3.05 -2.03,4.78 -2.03,1.72 -5.48,1.72 v 0 H 5.16 V 0 H 3.48 Z m 1.68,11.39 h 5.46 q 2.92,0 4.42,-1.28 1.51,-1.27 1.51,-3.65 v 0 q 0,-2.34 -1.51,-3.63 -1.5,-1.29 -4.42,-1.29 v 0 H 5.16 Z"
   stroke-linecap="round"
   id="path40" />&#10;</g>&#10;</g>&#10;</g>&#10;<g
   transform="matrix(0.74521574,1.7707302,-1.7707302,0.74521574,332.76621,641.02567)"
   id="tagline-72888546-5269-4e6f-87ba-a22da73c2a11-logo-0"
   inkscape:label="A_">&#10;<g
   paint-order="stroke"
   id="g42">&#10;		<g
   id="tagline-72888546-5269-4e6f-87ba-a22da73c2a11-logo-0-path-0">&#10;<path
   style="opacity:1;fill:#aa1089;fill-rule:nonzero;stroke:#ffffff;stroke-width:0;stroke-linecap:butt;stroke-linejoin:miter;stroke-miterlimit:4;stroke-dasharray:none;stroke-dashoffset:0"
   paint-order="stroke"
   transform="translate(-11.56,12.21)"
   d="M 2.66,0 H 0.7 l 9.77,-24.42 h 2.18 L 22.42,0 H 20.46 L 17.39,-7.66 H 5.7 Z m 8.88,-22.61 -0.88,2.52 -4.26,10.73 h 10.32 l -4.25,-10.66 -0.89,-2.59 z"
   stroke-linecap="round"
   id="path41" />&#10;</g>&#10;</g>&#10;</g>&#10;<g
   transform="matrix(1.01828,1.6290912,-1.6290912,1.01828,358.14341,689.69369)"
   id="tagline-72888546-5269-4e6f-87ba-a22da73c2a11-logo-1"
   inkscape:label="D_">&#10;<g
   paint-order="stroke"
   id="g43">&#10;		<g
   id="tagline-72888546-5269-4e6f-87ba-a22da73c2a11-logo-1-path-0">&#10;<path
   style="opacity:1;fill:#aa1089;fill-rule:nonzero;stroke:#ffffff;stroke-width:0;stroke-linecap:butt;stroke-linejoin:miter;stroke-miterlimit:4;stroke-dasharray:none;stroke-dashoffset:0"
   paint-order="stroke"
   transform="translate(-13.785,12.21)"
   d="m 3.85,-24.42 h 7.69 q 5.85,0 9.01,3.09 3.17,3.09 3.17,8.94 v 0 q 0,6.03 -3.17,9.21 Q 17.39,0 11.54,0 V 0 H 3.85 Z M 5.7,-1.7 h 5.99 q 4.89,0 7.49,-2.78 2.61,-2.77 2.61,-7.91 v 0 q 0,-4.96 -2.61,-7.65 -2.6,-2.68 -7.49,-2.68 v 0 H 5.7 Z"
   stroke-linecap="round"
   id="path42" />&#10;</g>&#10;</g>&#10;</g>&#10;<g
   transform="matrix(1.2582403,1.4517794,-1.4517794,1.2582403,388.09108,730.02524)"
   id="tagline-72888546-5269-4e6f-87ba-a22da73c2a11-logo-2"
   inkscape:label="V_">&#10;<g
   paint-order="stroke"
   id="g44">&#10;		<g
   id="tagline-72888546-5269-4e6f-87ba-a22da73c2a11-logo-2-path-0">&#10;<path
   style="opacity:1;fill:#aa1089;fill-rule:nonzero;stroke:#ffffff;stroke-width:0;stroke-linecap:butt;stroke-linejoin:miter;stroke-miterlimit:4;stroke-dasharray:none;stroke-dashoffset:0"
   paint-order="stroke"
   transform="translate(-11.36,12.21)"
   d="m 19.91,-24.42 h 1.96 L 12.47,0 H 10.29 L 0.85,-24.42 h 2 l 7.21,18.91 1.3,3.77 1.29,-3.77 z"
   stroke-linecap="round"
   id="path43" />&#10;</g>&#10;</g>&#10;</g>&#10;<g
   transform="matrix(1.4447822,1.2662687,-1.2662687,1.4447822,420.30525,762.42364)"
   id="tagline-72888546-5269-4e6f-87ba-a22da73c2a11-logo-3"
   inkscape:label="A__">&#10;<g
   paint-order="stroke"
   id="g45">&#10;		<g
   id="tagline-72888546-5269-4e6f-87ba-a22da73c2a11-logo-3-path-0">&#10;<path
   style="opacity:1;fill:#aa1089;fill-rule:nonzero;stroke:#ffffff;stroke-width:0;stroke-linecap:butt;stroke-linejoin:miter;stroke-miterlimit:4;stroke-dasharray:none;stroke-dashoffset:0"
   paint-order="stroke"
   transform="translate(-11.56,12.21)"
   d="M 2.66,0 H 0.7 l 9.77,-24.42 h 2.18 L 22.42,0 H 20.46 L 17.39,-7.66 H 5.7 Z m 8.88,-22.61 -0.88,2.52 -4.26,10.73 h 10.32 l -4.25,-10.66 -0.89,-2.59 z"
   stroke-linecap="round"
   id="path44" />&#10;</g>&#10;</g>&#10;</g>&#10;<g
   transform="matrix(1.629901,1.0169832,-1.0169832,1.629901,463.56466,794.54876)"
   id="tagline-72888546-5269-4e6f-87ba-a22da73c2a11-logo-4"
   inkscape:label="N_">&#10;<g
   paint-order="stroke"
   id="g46">&#10;		<g
   id="tagline-72888546-5269-4e6f-87ba-a22da73c2a11-logo-4-path-0">&#10;<path
   style="opacity:1;fill:#aa1089;fill-rule:nonzero;stroke:#ffffff;stroke-width:0;stroke-linecap:butt;stroke-linejoin:miter;stroke-miterlimit:4;stroke-dasharray:none;stroke-dashoffset:0"
   paint-order="stroke"
   transform="translate(-13.23,12.21)"
   d="m 20.87,-24.42 h 1.74 V 0 h -2.3 L 7.36,-19.17 5.55,-22.31 H 5.51 l 0.11,2.96 V 0 H 3.85 v -24.42 h 2.33 l 12.91,19.13 1.85,3.18 v 0 l -0.07,-2.96 z"
   stroke-linecap="round"
   id="path45" />&#10;</g>&#10;</g>&#10;</g>&#10;<g
   transform="matrix(1.7764442,0.73149037,-0.73149037,1.7764442,513.69771,820.22209)"
   id="tagline-72888546-5269-4e6f-87ba-a22da73c2a11-logo-5"
   inkscape:label="C_">&#10;<g
   paint-order="stroke"
   id="g47">&#10;		<g
   id="tagline-72888546-5269-4e6f-87ba-a22da73c2a11-logo-5-path-0">&#10;<path
   style="opacity:1;fill:#aa1089;fill-rule:nonzero;stroke:#ffffff;stroke-width:0;stroke-linecap:butt;stroke-linejoin:miter;stroke-miterlimit:4;stroke-dasharray:none;stroke-dashoffset:0"
   paint-order="stroke"
   transform="translate(-12.725,12.21)"
   d="m 21.31,-6.88 1.85,0.7 q -1.03,3.11 -3.62,4.83 -2.59,1.72 -6.15,1.72 v 0 Q 10.03,0.37 7.55,-1.17 5.07,-2.7 3.68,-5.51 2.29,-8.32 2.29,-12.21 v 0 q 0,-3.88 1.39,-6.7 1.39,-2.81 3.87,-4.34 2.48,-1.54 5.81,-1.54 v 0 q 7.36,0 9.47,6.03 v 0 l -1.81,0.85 q -0.86,-2.55 -2.71,-3.86 -1.85,-1.32 -4.84,-1.32 v 0 q -2.74,0 -4.83,1.32 -2.09,1.31 -3.24,3.75 -1.15,2.44 -1.15,5.81 v 0 q 0,3.37 1.13,5.81 1.13,2.44 3.19,3.75 2.05,1.32 4.82,1.32 v 0 q 2.96,0 5.04,-1.43 2.07,-1.42 2.88,-4.12 z"
   stroke-linecap="round"
   id="path46" />&#10;</g>&#10;</g>&#10;</g>&#10;<g
   transform="matrix(1.8680107,0.44874078,-0.44874078,1.8680107,564.33248,836.38788)"
   id="tagline-72888546-5269-4e6f-87ba-a22da73c2a11-logo-6"
   inkscape:label="E_">&#10;<g
   paint-order="stroke"
   id="g48">&#10;		<g
   id="tagline-72888546-5269-4e6f-87ba-a22da73c2a11-logo-6-path-0">&#10;<path
   style="opacity:1;fill:#aa1089;fill-rule:nonzero;stroke:#ffffff;stroke-width:0;stroke-linecap:butt;stroke-linejoin:miter;stroke-miterlimit:4;stroke-dasharray:none;stroke-dashoffset:0"
   paint-order="stroke"
   transform="translate(-12.49,12.21)"
   d="M 21.13,0 H 3.85 v -24.42 h 16.69 v 1.7 H 5.7 v 9.44 h 11.73 v 1.74 H 5.7 v 9.84 h 15.43 z"
   stroke-linecap="round"
   id="path47" />&#10;</g>&#10;</g>&#10;</g>&#10;<g
   transform="matrix(1.915465,0.14773599,-0.14773599,1.915465,615.91329,844.2186)"
   id="tagline-72888546-5269-4e6f-87ba-a22da73c2a11-logo-7"
   inkscape:label="D_">&#10;<g
   paint-order="stroke"
   id="g49">&#10;		<g
   id="tagline-72888546-5269-4e6f-87ba-a22da73c2a11-logo-7-path-0">&#10;<path
   style="opacity:1;fill:#aa1089;fill-rule:nonzero;stroke:#ffffff;stroke-width:0;stroke-linecap:butt;stroke-linejoin:miter;stroke-miterlimit:4;stroke-dasharray:none;stroke-dashoffset:0"
   paint-order="stroke"
   transform="translate(-13.785,12.21)"
   d="m 3.85,-24.42 h 7.69 q 5.85,0 9.01,3.09 3.17,3.09 3.17,8.94 v 0 q 0,6.03 -3.17,9.21 Q 17.39,0 11.54,0 V 0 H 3.85 Z M 5.7,-1.7 h 5.99 q 4.89,0 7.49,-2.78 2.61,-2.77 2.61,-7.91 v 0 q 0,-4.96 -2.61,-7.65 -2.6,-2.68 -7.49,-2.68 v 0 H 5.7 Z"
   stroke-linecap="round"
   id="path48" />&#10;</g>&#10;</g>&#10;</g>&#10;&#10;<g
   transform="matrix(1.8964339,-0.30719799,0.30719799,1.8964339,695.59708,840.43463)"
   id="tagline-72888546-5269-4e6f-87ba-a22da73c2a11-logo-9"
   inkscape:label="R_">&#10;<g
   paint-order="stroke"
   id="g51">&#10;		<g
   id="tagline-72888546-5269-4e6f-87ba-a22da73c2a11-logo-9-path-0">&#10;<path
   style="opacity:1;fill:#aa1089;fill-rule:nonzero;stroke:#ffffff;stroke-width:0;stroke-linecap:butt;stroke-linejoin:miter;stroke-miterlimit:4;stroke-dasharray:none;stroke-dashoffset:0"
   paint-order="stroke"
   transform="translate(-13.025,12.21)"
   d="m 3.85,-24.42 h 9.06 q 3.63,0 5.81,1.85 2.18,1.85 2.18,5.07 v 0 q 0,2.7 -1.57,4.42 -1.57,1.72 -4.27,2.2 v 0 L 22.2,0 h -2.18 l -7.07,-10.69 h -0.07 l -0.19,0.11 H 5.7 V 0 H 3.85 Z m 1.85,12.1 h 7.18 q 2.96,0 4.53,-1.33 1.57,-1.33 1.57,-3.85 v 0 q 0,-2.52 -1.57,-3.87 -1.57,-1.35 -4.53,-1.35 v 0 H 5.7 Z"
   stroke-linecap="round"
   id="path50" />&#10;</g>&#10;</g>&#10;</g>&#10;<g
   transform="matrix(1.8201453,-0.61473825,0.61473825,1.8201453,746.7031,827.56598)"
   id="tagline-72888546-5269-4e6f-87ba-a22da73c2a11-logo-10"
   inkscape:label="O_">&#10;<g
   paint-order="stroke"
   id="g52">&#10;		<g
   id="tagline-72888546-5269-4e6f-87ba-a22da73c2a11-logo-10-path-0">&#10;<path
   style="opacity:1;fill:#aa1089;fill-rule:nonzero;stroke:#ffffff;stroke-width:0;stroke-linecap:butt;stroke-linejoin:miter;stroke-miterlimit:4;stroke-dasharray:none;stroke-dashoffset:0"
   paint-order="stroke"
   transform="translate(-13.54,12.21)"
   d="m 13.54,-24.79 v 0 q 3.44,0 5.98,1.54 2.53,1.53 3.9,4.34 1.37,2.82 1.37,6.7 v 0 q 0,3.89 -1.37,6.7 -1.37,2.81 -3.9,4.34 -2.54,1.54 -5.98,1.54 v 0 Q 10.1,0.37 7.57,-1.17 5.03,-2.7 3.66,-5.51 2.29,-8.32 2.29,-12.21 v 0 q 0,-3.88 1.37,-6.7 1.37,-2.81 3.91,-4.34 2.53,-1.54 5.97,-1.54 z m 0,1.7 v 0 q -2.85,0 -4.94,1.32 -2.09,1.31 -3.22,3.75 -1.13,2.44 -1.13,5.81 v 0 q 0,3.37 1.13,5.81 1.13,2.44 3.22,3.75 2.09,1.32 4.94,1.32 v 0 q 2.85,0 4.94,-1.32 2.09,-1.31 3.24,-3.75 1.15,-2.44 1.15,-5.81 v 0 q 0,-3.37 -1.15,-5.81 -1.15,-2.44 -3.24,-3.75 -2.09,-1.32 -4.94,-1.32 z"
   stroke-linecap="round"
   id="path51" />&#10;</g>&#10;</g>&#10;</g>&#10;<g
   transform="matrix(1.694617,-0.90504441,0.90504441,1.694617,798.39836,805.082)"
   id="tagline-72888546-5269-4e6f-87ba-a22da73c2a11-logo-11"
   inkscape:label="B_">&#10;<g
   paint-order="stroke"
   id="g53">&#10;		<g
   id="tagline-72888546-5269-4e6f-87ba-a22da73c2a11-logo-11-path-0">&#10;<path
   style="opacity:1;fill:#aa1089;fill-rule:nonzero;stroke:#ffffff;stroke-width:0;stroke-linecap:butt;stroke-linejoin:miter;stroke-miterlimit:4;stroke-dasharray:none;stroke-dashoffset:0"
   paint-order="stroke"
   transform="translate(-12.47,12.21)"
   d="M 12.47,0 H 3.85 v -24.42 h 8.62 q 4.03,0 5.99,1.7 1.96,1.7 1.96,4.77 v 0 q 0,2.11 -1.14,3.61 -1.15,1.5 -3.33,1.95 v 0 0.03 q 2.36,0.37 3.75,1.94 1.39,1.58 1.39,3.83 v 0 q 0,3.11 -2.22,4.85 Q 16.65,0 12.47,0 Z M 5.7,-22.72 v 9.55 h 6.81 q 5.95,0 5.95,-4.78 v 0 q 0,-4.77 -5.95,-4.77 v 0 z m 0,11.25 v 9.77 h 7.14 q 6.29,0 6.29,-4.89 v 0 q 0,-4.88 -6.29,-4.88 v 0 z"
   stroke-linecap="round"
   id="path52" />&#10;</g>&#10;</g>&#10;</g>&#10;<g
   transform="matrix(1.5231583,-1.1708206,1.1708206,1.5231583,843.20718,776.03623)"
   id="tagline-72888546-5269-4e6f-87ba-a22da73c2a11-logo-12"
   inkscape:label="O_">&#10;<g
   paint-order="stroke"
   id="g54">&#10;		<g
   id="tagline-72888546-5269-4e6f-87ba-a22da73c2a11-logo-12-path-0">&#10;<path
   style="opacity:1;fill:#aa1089;fill-rule:nonzero;stroke:#ffffff;stroke-width:0;stroke-linecap:butt;stroke-linejoin:miter;stroke-miterlimit:4;stroke-dasharray:none;stroke-dashoffset:0"
   paint-order="stroke"
   transform="translate(-13.54,12.21)"
   d="m 13.54,-24.79 v 0 q 3.44,0 5.98,1.54 2.53,1.53 3.9,4.34 1.37,2.82 1.37,6.7 v 0 q 0,3.89 -1.37,6.7 -1.37,2.81 -3.9,4.34 -2.54,1.54 -5.98,1.54 v 0 Q 10.1,0.37 7.57,-1.17 5.03,-2.7 3.66,-5.51 2.29,-8.32 2.29,-12.21 v 0 q 0,-3.88 1.37,-6.7 1.37,-2.81 3.91,-4.34 2.53,-1.54 5.97,-1.54 z m 0,1.7 v 0 q -2.85,0 -4.94,1.32 -2.09,1.31 -3.22,3.75 -1.13,2.44 -1.13,5.81 v 0 q 0,3.37 1.13,5.81 1.13,2.44 3.22,3.75 2.09,1.32 4.94,1.32 v 0 q 2.85,0 4.94,-1.32 2.09,-1.31 3.24,-3.75 1.15,-2.44 1.15,-5.81 v 0 q 0,-3.37 -1.15,-5.81 -1.15,-2.44 -3.24,-3.75 -2.09,-1.32 -4.94,-1.32 z"
   stroke-linecap="round"
   id="path53" />&#10;</g>&#10;</g>&#10;</g>&#10;<g
   transform="matrix(1.3318884,-1.3845235,1.3845235,1.3318884,880.32714,742.80874)"
   id="tagline-72888546-5269-4e6f-87ba-a22da73c2a11-logo-13"
   inkscape:label="T_">&#10;<g
   paint-order="stroke"
   id="g55">&#10;		<g
   id="tagline-72888546-5269-4e6f-87ba-a22da73c2a11-logo-13-path-0">&#10;<path
   style="opacity:1;fill:#aa1089;fill-rule:nonzero;stroke:#ffffff;stroke-width:0;stroke-linecap:butt;stroke-linejoin:miter;stroke-miterlimit:4;stroke-dasharray:none;stroke-dashoffset:0"
   paint-order="stroke"
   transform="translate(-10.655,12.21)"
   d="M 0.81,-24.42 H 20.5 v 1.7 H 11.58 V 0 H 9.73 V -22.72 H 0.81 Z"
   stroke-linecap="round"
   id="path54" />&#10;</g>&#10;</g>&#10;</g>&#10;<g
   transform="matrix(1.1862255,-1.5111919,1.5111919,1.1862255,902.29664,717.5402)"
   id="tagline-72888546-5269-4e6f-87ba-a22da73c2a11-logo-14"
   inkscape:label="I_">&#10;<g
   paint-order="stroke"
   id="g56">&#10;		<g
   id="tagline-72888546-5269-4e6f-87ba-a22da73c2a11-logo-14-path-0">&#10;<path
   style="opacity:1;fill:#aa1089;fill-rule:nonzero;stroke:#ffffff;stroke-width:0;stroke-linecap:butt;stroke-linejoin:miter;stroke-miterlimit:4;stroke-dasharray:none;stroke-dashoffset:0"
   paint-order="stroke"
   transform="translate(-4.775,12.21)"
   d="M 3.85,-24.42 H 5.7 V 0 H 3.85 Z"
   stroke-linecap="round"
   id="path55" />&#10;</g>&#10;</g>&#10;</g>&#10;<g
   transform="matrix(1.0099066,-1.6342952,1.6342952,1.0099066,923.98206,686.4144)"
   id="tagline-72888546-5269-4e6f-87ba-a22da73c2a11-logo-15"
   inkscape:label="C__">&#10;<g
   paint-order="stroke"
   id="g57">&#10;		<g
   id="tagline-72888546-5269-4e6f-87ba-a22da73c2a11-logo-15-path-0">&#10;<path
   style="opacity:1;fill:#aa1089;fill-rule:nonzero;stroke:#ffffff;stroke-width:0;stroke-linecap:butt;stroke-linejoin:miter;stroke-miterlimit:4;stroke-dasharray:none;stroke-dashoffset:0"
   paint-order="stroke"
   transform="translate(-12.725,12.21)"
   d="m 21.31,-6.88 1.85,0.7 q -1.03,3.11 -3.62,4.83 -2.59,1.72 -6.15,1.72 v 0 Q 10.03,0.37 7.55,-1.17 5.07,-2.7 3.68,-5.51 2.29,-8.32 2.29,-12.21 v 0 q 0,-3.88 1.39,-6.7 1.39,-2.81 3.87,-4.34 2.48,-1.54 5.81,-1.54 v 0 q 7.36,0 9.47,6.03 v 0 l -1.81,0.85 q -0.86,-2.55 -2.71,-3.86 -1.85,-1.32 -4.84,-1.32 v 0 q -2.74,0 -4.83,1.32 -2.09,1.31 -3.24,3.75 -1.15,2.44 -1.15,5.81 v 0 q 0,3.37 1.13,5.81 1.13,2.44 3.19,3.75 2.05,1.32 4.82,1.32 v 0 q 2.96,0 5.04,-1.43 2.07,-1.42 2.88,-4.12 z"
   stroke-linecap="round"
   id="path56" />&#10;</g>&#10;</g>&#10;</g>&#10;<g
   transform="matrix(0.74414656,-1.7711798,1.7711798,0.74414656,947.25136,641.19993)"
   id="tagline-72888546-5269-4e6f-87ba-a22da73c2a11-logo-16"
   inkscape:label="S_">&#10;<g
   paint-order="stroke"
   id="g58">&#10;		<g
   id="tagline-72888546-5269-4e6f-87ba-a22da73c2a11-logo-16-path-0">&#10;<path
   style="opacity:1;fill:#aa1089;fill-rule:nonzero;stroke:#ffffff;stroke-width:0;stroke-linecap:butt;stroke-linejoin:miter;stroke-miterlimit:4;stroke-dasharray:none;stroke-dashoffset:0"
   paint-order="stroke"
   transform="translate(-11.265,12.21)"
   d="m 11.4,-24.79 v 0 q 6.77,0 9.21,5.4 v 0 l -1.56,1.19 q -1.07,-2.59 -3.01,-3.74 -1.94,-1.15 -4.79,-1.15 v 0 q -3.3,0 -5.03,1.46 -1.74,1.47 -1.74,3.57 v 0 q 0,1.71 1.09,2.82 1.09,1.11 4.09,1.77 v 0 l 4.77,1.04 q 3.55,0.78 5.03,2.24 1.48,1.46 1.48,3.75 v 0 q 0,2 -1.15,3.54 -1.14,1.53 -3.2,2.4 -2.05,0.87 -4.79,0.87 v 0 Q 7.88,0.37 5.24,-1.2 2.59,-2.77 1.59,-5.55 v 0 l 1.63,-1.26 q 0.78,2.63 3.05,4.05 2.28,1.43 5.61,1.43 v 0 q 3.1,0 5.12,-1.28 2.02,-1.27 2.02,-3.72 v 0 q 0,-1.51 -1.11,-2.59 -1.11,-1.07 -3.85,-1.66 v 0 L 9.03,-11.69 Q 5.51,-12.47 4.01,-14 2.52,-15.54 2.52,-17.83 v 0 q 0,-1.89 1.07,-3.46 1.07,-1.58 3.05,-2.54 1.98,-0.96 4.76,-0.96 z"
   stroke-linecap="round"
   id="path57" />&#10;</g>&#10;</g>&#10;</g>&#10;</svg>
