<?xml version="1.0" encoding="UTF-8"?>
<svg id="_图层_2" data-name="图层 2" xmlns="http://www.w3.org/2000/svg" xmlns:xlink="http://www.w3.org/1999/xlink" viewBox="0 0 64.04 29.75">
  <defs>
    <style>
      .cls-1 {
        fill: url(#_未命名的渐变_57);
      }

      .cls-1, .cls-2, .cls-3 {
        stroke-width: 0px;
      }

      .cls-2 {
        fill: #3e3a39;
      }

      .cls-3 {
        fill: #fff;
      }
    </style>
    <linearGradient id="_未命名的渐变_57" data-name="未命名的渐变 57" x1="37.63" y1="14.86" x2="100.46" y2="14.86" gradientTransform="translate(-29.55) skewX(-20)" gradientUnits="userSpaceOnUse">
      <stop offset="0" stop-color="#b52323"/>
      <stop offset=".6" stop-color="#682746"/>
      <stop offset=".86" stop-color="#59597e"/>
      <stop offset=".88" stop-color="#4f678c"/>
      <stop offset=".91" stop-color="#3f80a4"/>
      <stop offset=".93" stop-color="#3492b6"/>
      <stop offset=".96" stop-color="#2d9dc0"/>
      <stop offset="1" stop-color="#2ba1c4"/>
    </linearGradient>
  </defs>
  <g id="_图层_2-2" data-name="图层 2">
    <g>
      <rect class="cls-3" width="64.04" height="29.75"/>
      <text/>
      <g>
        <path class="cls-2" d="m13.99,14.51h-4.41l-3.11,8.59h2.67l1.16-3.19h1.45c1.07,0,1.95-.24,2.65-.73s1.21-1.17,1.52-2.03c.31-.84.3-1.49-.01-1.95-.31-.46-.95-.69-1.91-.69Zm-1.25,3.4c-.27.18-.66.27-1.17.27h-.65l.69-1.92h.76c.5,0,.8.09.91.28s.12.42.02.69c-.1.28-.29.5-.56.68Z"/>
        <polygon class="cls-2" points="25.98 14.51 22.87 23.1 25.53 23.1 28.64 14.51 25.98 14.51"/>
        <path class="cls-2" d="m57.68,20.61c-.02-.12-.08-.3-.18-.53-.1-.23-.19-.38-.26-.45-.11-.11-.3-.21-.58-.32.43-.09.78-.2,1.06-.34.43-.21.81-.5,1.14-.84.33-.35.58-.76.75-1.23.2-.55.23-1.01.11-1.39-.13-.38-.38-.64-.77-.78s-.98-.21-1.8-.21h-22.46l-1.72,4.75-1.51-4.75h-2.48l-3.11,8.59h2.5l1.71-4.72,1.51,4.72h2.5l2.35-6.47h2.67l-2.35,6.47h2.65l2.35-6.47h2.7l-2.35,6.47h10.17l1.26-3.49h.23c.24,0,.43.07.58.2.1.1.18.32.24.66l.47,2.62h3l-.38-2.49Zm-7.63.54h-4.58l.61-1.69h4.13l.64-1.75h-4.13l.5-1.37h4.85l-1.74,4.81h-.26Zm6.47-3.55c-.16.14-.34.23-.53.27-.38.08-.62.12-.75.12h-1.12l.63-1.75h1.17c.48,0,.79.07.91.22.12.15.13.36.03.64-.07.19-.18.35-.35.5Z"/>
        <path class="cls-2" d="m21.38,14.37c-1.36,0-2.57.39-3.62,1.17-1.05.78-1.83,1.87-2.33,3.28-.36,1-.47,1.84-.33,2.51s.47,1.16.98,1.46,1.24.46,2.19.46,1.78-.18,2.53-.54,1.41-.86,1.98-1.5c.56-.64,1.03-1.47,1.39-2.47.5-1.38.51-2.46.03-3.23-.48-.77-1.42-1.15-2.82-1.15Zm-.99,6.34c-.44.37-.94.56-1.5.56s-.9-.19-1.08-.57c-.18-.38-.11-1,.2-1.87.32-.88.7-1.5,1.16-1.88s.94-.57,1.47-.57.91.19,1.1.56c.18.37.13.96-.16,1.77-.35.96-.74,1.63-1.18,2Z"/>
      </g>
      <path class="cls-1" d="m62.16,24.01h-1.59l1.31-1.42-.79-.6-1.31,1.42-.28-1.42-1.23.6.28,1.42H5.21l5.06-13.9-.37,3.55h2.87s5.76,0,5.76,0h2.93l1.26-3.49h.23c.24,0,.43.07.58.2.1.1.18.32.24.66l.47,2.62h3l-.38-2.49c-.02-.12-.08-.3-.18-.53-.1-.23-.19-.38-.26-.45-.11-.11-.3-.21-.58-.32.43-.09.78-.2,1.06-.34.43-.21.81-.5,1.14-.84.05-.05.08-.11.12-.16-.13.27-.26.55-.37.86-.36,1-.47,1.84-.33,2.51.14.67.47,1.16.98,1.46s1.24.46,2.19.46,1.78-.18,2.53-.54,1.41-.86,1.98-1.5,1.03-1.47,1.39-2.47c.5-1.38.51-2.46.03-3.23-.48-.77-1.42-1.15-2.82-1.15s-2.57.39-3.62,1.17c-.52.38-.96.85-1.35,1.38,0-.01.01-.02.02-.03.2-.55.23-1.01.11-1.39-.13-.38-.38-.64-.77-.78s-.98-.21-1.8-.21h-11.93l-1.41,3.88.31-6.46h-2.99L3.11,13.66h2.8l2.08-3.55-5.5,15.11h2.28s0,0,0,0h53.34l-1.31,1.42.79.6,1.31-1.42.28,1.42,1.23-.6-.28-1.42h1.59l.44-1.21ZM31.55,7.51c.45-.38.94-.57,1.47-.57s.91.19,1.1.56.13.96-.16,1.77c-.35.96-.74,1.63-1.18,2-.44.37-.94.56-1.5.56s-.9-.19-1.08-.57-.11-1,.2-1.87c.32-.88.7-1.5,1.16-1.88Zm-6.43-.71c.48,0,.79.07.91.22s.13.36.03.64c-.07.19-.18.35-.35.5s-.34.23-.53.27c-.38.08-.62.12-.75.12h-1.12l.63-1.75h1.17Zm-4.43.1h.56l-1.74,4.81h-4.85l.61-1.69h4.13l.64-1.75h-4.13l.5-1.37h4.29Zm-9.91-1.52l-.45,4.3h-2.07l2.53-4.3Z"/>
    </g>
  </g>
</svg>